<?xml version="1.0" encoding="utf-8"?>
<!-- Generator: Adobe Illustrator 21.1.0, SVG Export Plug-In . SVG Version: 6.00 Build 0)  -->
<svg version="1.1" id="Layer_1" xmlns="http://www.w3.org/2000/svg" xmlns:xlink="http://www.w3.org/1999/xlink" width="214.7" height="275"
	 viewBox="0 0 214.7 275" enable-background="new 0 0 214.7 275" xml:space="preserve">
<g>
	<path fill-rule="evenodd" clip-rule="evenodd" fill="#FFFFFF" d="M107.3,246.2c-33.2,0-61.9-19.6-75-47.9L6.2,210.4
		C23.9,248.5,62.6,275,107.3,275c44.8,0,83.4-26.5,101.1-64.6l-26.1-12.1C169.2,226.6,140.5,246.2,107.3,246.2z"/>
	<path fill-rule="evenodd" clip-rule="evenodd" fill="#FFFFFF" d="M107.3,236.9c0,0-80.9-37.3-80.9-119.9V80.5
		c0-9.5,7.7-17.1,17.1-17.1h127.5c9.5,0,17.1,7.7,17.1,17.1v36.6C188.2,199.6,107.3,236.9,107.3,236.9z"/>
	<g>
		<path fill-rule="evenodd" clip-rule="evenodd" fill="#C41130" d="M177.2,159.3h-2.8c-7.7-0.9-12.1-3.9-15.6-7
			c-1.1-0.9-2-1.8-3-2.6c-1.1-0.9-2.1-1.8-3.1-2.5c-2.3-1.6-5-3-8.5-3c-3.7,0-6.7,1.4-9.3,3.1c-2.2,1.5-4.5,3.5-7.1,5.4
			c-4.6,3.5-10.4,6.8-20.4,6.8c-10,0-15.8-3.4-20.4-6.8c-2.6-2-4.9-4-7.1-5.4c-2.5-1.7-5.5-3.1-9.3-3.1c-3.6,0-6.4,1.4-8.7,3.1
			c-1.1,0.8-2.1,1.6-3.2,2.6c-0.9,0.8-1.9,1.7-3,2.7c-3.6,3.1-8.1,6.1-16.1,6.9H36c-3-7.8-4.9-15.8-6.2-25c1.1,0.3,2.1,0.5,3.4,0.5
			c10.3,0,14.6-15.3,37-15.3c22.4,0,26.8,15.3,37.1,15.3c10.3,0,14.3-15.3,36.7-15.3s26.7,15.3,37,15.3c1.5,0,2.4-0.1,3.8-0.6
			c-1.3,9-3.6,17.3-6.6,25.1L177.2,159.3 M51.4,56.7c0-1,0.8-1.8,1.8-1.8l25.3,0.4l0,1.3c0,0.5,0,1,0.1,1.8l-25.3,0
			C52.1,58.4,51.4,57.7,51.4,56.7z M136.2,58.4c0-0.9,0.1-1.3,0.1-1.8l0-1.3l25.3-0.4c1,0,1.8,0.8,1.8,1.8c0,1-0.8,1.8-1.8,1.8
			H136.2z M86.4,36.8c-0.9,0.9-1.4,1.6-1.9,2.2L64,23.1c-0.8-0.7-0.9-1.9-0.2-2.7c0.7-0.8,1.9-0.9,2.7-0.2L86.4,36.8z M136.2,53.8
			c-0.2-1.3-0.3-2.1-0.4-2.9l18.4-4.2c0.8,1.2,1.5,2.1,2.2,3L136.2,53.8z M134.3,46.1l16.4-7c0.4,1.4,0.7,2.2,1.1,3.1l-16.5,6.7
			C134.8,47.6,134.6,46.8,134.3,46.1z M149.7,34.3l-16.3,9.8c-0.6-1.1-1-1.9-1.4-2.5l17.5-11.3C149.5,32.1,149.6,33.2,149.7,34.3z
			 M148.2,20.1c0.8-0.7,2.1-0.6,2.7,0.2c0.7,0.8,0.6,2.1-0.2,2.7l-19.9,16.7c-0.8-1-1.3-1.7-1.8-2.3L148.2,20.1z M127.5,36
			c-0.9-0.9-1.6-1.4-2.2-1.9l8.8-11.9c1.1,0.1,2,0.1,2.9,0.1l2,0L127.5,36z M123.5,32.8c-1.1-0.7-1.8-1.1-2.5-1.5l5.3-11.1
			c1.4,0.5,2.3,0.8,3.3,1.1L123.5,32.8z M116.4,29.3l3.5-12.6c1.3,0.9,2.1,1.4,2.9,1.9l-3.7,11.8C117.9,29.8,117.1,29.5,116.4,29.3z
			 M113.6,10.4c1.3,1.7,2.2,2.6,3.1,3.5l-2.3,14.8c-1.3-0.3-2.1-0.4-2.9-0.5L113.6,10.4z M97.9,14c1.1-1.1,2-2.1,2.7-3.1l0.3-0.3
			l3.3,17.4c-1.3,0.2-2.1,0.3-2.9,0.5L97.9,14z M96.5,29.9l-5-11.2c1.2-0.6,2-1.1,2.7-1.7L99.2,29C98,29.4,97.2,29.6,96.5,29.9z
			 M92,32.3l-7.4-10.8c1.4-0.4,2.4-0.7,3.3-1l6.7,10.4C93.4,31.4,92.6,31.8,92,32.3z M90.2,33.5c-1,0.8-1.7,1.3-2.3,1.8L75.6,22.2
			l2.1,0c0.9,0,1.8,0,2.7-0.1L90.2,33.5z M83.2,40.7c-0.7,1.1-1.1,1.8-1.5,2.5l-16.8-8.6c0.2-1.4,0.2-2.5,0.2-3.6v-0.3L83.2,40.7z
			 M79.7,47.9l-17.1-5.2c0.6-1.3,0.9-2.2,1.1-3l17,5.5C80.3,46.4,80,47.2,79.7,47.9z M78.6,52.8l-20.7-2.6c1.1-1.3,1.8-2.2,2.4-3.2
			L79.2,50C78.9,51.2,78.7,52.1,78.6,52.8z M109.3,27.9c-1-0.1-1.5-0.1-1.9-0.1l-1.6,0L105.4,2c0-1.1,0.9-2,2-2
			c1.1,0,1.9,0.9,1.9,1.9V27.9z"/>
		<path fill-rule="evenodd" clip-rule="evenodd" fill="#002D6A" d="M54.6,109.9c18.9-6.6,40.2-1,52.8,10.4
			c12.5-11.4,33.9-17.1,52.8-10.4l-10.3-19.8c1.4,0.6,2.3,1,3.8,1.7l11.1,21.6l-2.2,2.2c-18.7-8.7-41.8-3.8-55.1,10.2
			c-13.4-14.1-36.4-18.9-55.1-10.2l-2.2-2.2l11.1-21.6c1.5-0.7,2.4-1.1,3.8-1.7L54.6,109.9 M72.7,87.4l-8,17.2
			c-1.4,0.2-2.8,0.5-4.3,0.8L70,84.7c8.4-3.9,24.5-4.8,37.3,5.2c12.8-10,28.9-9,37.3-5.2l9.6,20.7c-1.5-0.3-2.9-0.6-4.3-0.8l-8-17.2
			c-7.6-3-21.4-3.4-32.5,5.2l-2.2,1.7l-2.2-1.7C94.1,84,80.3,84.5,72.7,87.4z M71.6,98c11.3-1.1,24.2,1.7,33.7,9.4l0.1,4.6l-0.4-0.3
			c-9.5-7.4-22.5-11-34.7-10.1l-0.4,0L71.6,98z M74.1,93.6l1.5-3.2c8.7-1.3,20.3,0.1,29.6,7.4v4C95.8,94.6,83.8,92.5,74.1,93.6z
			 M131.9,176.7h-0.5c-7.1,0.1-14.4,3.6-17.9,11.1c2.3-3.1,6.5-4.9,10.7-4.5C126.2,180.6,128.7,178.2,131.9,176.7z M82.8,176.7
			c3.2,1.6,5.7,3.9,7.7,6.6c4.2-0.4,8.4,1.4,10.7,4.5c-3.4-7.5-10.8-11-17.9-11.1H82.8z M107.3,173.5c0,0-3.3,7.2-5.6,16.2
			c-1.2-1.6-2.6-2.7-4.4-3.2c-2.8-0.8-6-0.2-9.2,0.9c-7-9-14.3,8.5-14.3,8.5s7-5.8,14.3-8.5c1,1.2,4.2,5.8,8.8,15.1
			c7.1,14.3,10.4,23.7,10.4,23.7s3.3-9.4,10.4-23.7c4.6-9.3,7.8-13.9,8.8-15.1c7.4,2.7,14.3,8.5,14.3,8.5s-7.3-17.5-14.3-8.5
			c-3.2-1.1-6.4-1.7-9.2-0.9c-1.7,0.5-3.2,1.6-4.4,3.2C110.6,180.7,107.3,173.5,107.3,173.5z M107.3,216.1c0,0-9.2-11.2-5.6-26.4
			c5.6,8.6,5.6,17.9,5.6,17.9s0-9.3,5.6-17.9C116.6,204.9,107.3,216.1,107.3,216.1z M194.2,216.6l1.1-1.8l-5.7-0.6l-2.8-4.6
			l-1.1,1.8l2.1,3l-3.7-0.5l-1.1,1.8l5.4,0.5l3,4.9l1.1-1.8l-2.2-3.3L194.2,216.6z M182.6,227.3c1.8,1.3,3.5,1.1,5-0.9
			c1.5-2,1.2-3.7-0.5-5.1l-5.3-4l-1.1,1.4l5.3,4c1,0.7,1.2,1.6,0.4,2.7c-0.8,1.1-1.7,1.1-2.7,0.3l-5.3-4l-1.1,1.4L182.6,227.3z
			 M172.4,228.4l7.3,6.8l4.1-4.4l-1.1-1l-2.9,3.1l-6.2-5.8L172.4,228.4z M168,232.6l-4.6,3.7l6.3,7.7l4.7-3.8l-0.9-1.2l-3.3,2.7
			l-1.8-2.2l2.7-2.2l-1-1.2l-2.7,2.2l-1.6-2l3.2-2.6L168,232.6z M160.1,241.5l3,2.5l-1.7,1.2L160.1,241.5z M157.8,240.2l3.3,9.9
			l1.6-1.1l-0.8-2.4l2.3-1.6l1.9,1.6l1.6-1.1l-8.1-6.6L157.8,240.2z M153.5,243l-1.6,0.9l4.8,8.7l1.6-0.9L153.5,243z M146.9,248.2
			l3.6,7.7l1.6-0.8l-3.6-7.7l2.2-1L150,245l-6,2.8l0.6,1.4L146.9,248.2z M145.4,258.2l-3.2-9.4l-1.7,0.6l2.1,6.2l-5.5-5.1l-1.9,0.7
			l3.2,9.4l1.7-0.6l-2.1-6.2l5.5,5L145.4,258.2z M132.6,252l-5.7,1.4l2.4,9.7l5.9-1.5l-0.4-1.5l-4.1,1l-0.7-2.7l3.4-0.9l-0.4-1.5
			l-3.4,0.9l-0.6-2.5l4-1L132.6,252z M123.6,254l-1.8,0.3l1.6,9.8l1.8-0.3L123.6,254z M115,256.6l1.5-0.1c0.9-0.1,1.5,0.2,1.6,1.4
			c0.1,1.3-0.6,1.5-1.5,1.6l-1.4,0.1L115,256.6z M117.2,261c2.2-0.2,2.9-1.6,2.8-3.2c-0.1-1.6-1.1-2.9-3.3-2.7l-3.7,0.3l0.9,9.9
			l1.8-0.2l-0.3-4L117.2,261z M107.2,257.7l1,3.8l-2.1,0L107.2,257.7z M106.1,255.4l-3.1,10l2,0l0.7-2.4l2.9,0.1l0.6,2.4l2,0
			l-2.7-10.1L106.1,255.4z M97.8,263.6c-0.8-0.1-1.8-0.3-2.7-0.7l-0.1,1.5c0.7,0.3,1.9,0.6,2.7,0.7c1.9,0.2,3.5-0.6,3.7-2.5
			c0.1-1.3-0.5-2.3-2.2-3.3c-1.1-0.6-1.6-1-1.6-1.8c0.1-0.8,0.8-1.1,1.5-1c0.8,0.1,1.7,0.3,2.5,0.6l0.1-1.5
			c-0.7-0.3-1.7-0.6-2.5-0.7c-1.4-0.1-3.2,0.4-3.4,2.3c-0.1,1.5,0.7,2.4,2.1,3.3c1,0.6,1.7,1.1,1.6,2.1
			C99.3,263.4,98.7,263.7,97.8,263.6z M90.6,253.9l-5.8-1.2l-2.1,9.8l5.9,1.3l0.3-1.5l-4.2-0.9l0.6-2.8l3.4,0.7l0.3-1.5l-3.4-0.7
			l0.5-2.6l4,0.9L90.6,253.9z M78.5,252.4l-2.6,8l1.7,0.6l2.6-8l2.3,0.7l0.5-1.4l-6.3-2l-0.5,1.4L78.5,252.4z M71.8,250.7l-0.5,3.9
			l-2-0.8L71.8,250.7z M71.6,248.1l-6.5,8.2l1.8,0.7l1.5-2l2.7,1.1l-0.3,2.5l1.8,0.7l1.1-10.4L71.6,248.1z M64,246.3l-4,7.5l1.6,0.8
			l4-7.5l2.1,1.1l0.7-1.3l-5.8-3.1l-0.7,1.3L64,246.3z M61,242.9l-1.5-0.9l-5.1,8.5l1.5,0.9L61,242.9z M52.4,239.1l1.2,0.9
			c0.7,0.5,1.1,1.1,0.4,2.1c-0.7,1-1.5,0.8-2.2,0.3l-1.2-0.8L52.4,239.1z M55.6,243.1c0.9-1.3,1-2.9-0.7-4.2l-3-2.1l-5.7,8.2l1.5,1
			l2.3-3.3l0.9,0.6l-0.6,4.4l1.8,1.3l0.4-4.8C53.7,244.8,54.8,244.3,55.6,243.1z M49.7,235.1l-4.5-3.8l-6.4,7.6l4.6,3.9l1-1.1
			l-3.3-2.7l1.8-2.2l2.7,2.3l1-1.2l-2.7-2.3l1.7-2l3.1,2.6L49.7,235.1z M34.6,235l9.2-4.9l-1.4-1.4l-7,3.9l4.1-6.9l-1.4-1.4
			l-5.2,9.1L34.6,235z M27.3,226.6l8.1-5.9l-1.1-1.5l-5.3,3.9l3.2-6.7l-1.2-1.6l-8.1,5.9l1.1,1.5l5.3-3.9l-3.2,6.7L27.3,226.6z
			 M29.8,212.7l-1-1.5l-8.5,5.3l1,1.5L29.8,212.7z M107.3,246.2c-33.2,0-61.9-19.6-75-47.9L6.2,210.4C23.9,248.5,62.6,275,107.3,275
			c44.8,0,83.4-26.5,101.1-64.6l-26.1-12.1C169.2,226.6,140.5,246.2,107.3,246.2z M61.8,208.8c19.3,19.5-11.6,17.8-28-14.4
			l-15.9,6.7C10.8,190.1,4.5,177.7,0,163.7h31.3C38.9,182.2,50.3,197.2,61.8,208.8z M30.6,117.1c0,17.5,3.8,33,9.7,46.4
			c18.5-1.9,21.1-15.1,30.2-15.1c10.3,0,14.4,15.4,36.8,15.4c22.4,0,26.5-15.4,36.8-15.4c9.1,0,11.7,13.2,30.2,15.1
			c5.9-13.4,9.7-28.8,9.7-46.4V80.5c0-7.1-5.8-12.9-12.9-12.9H43.6c-7.1,0-12.9,5.8-12.9,12.9V117.1z M107.3,236.9
			c0,0-80.9-37.3-80.9-119.9V80.5c0-9.5,7.7-17.1,17.1-17.1h127.5c9.5,0,17.1,7.7,17.1,17.1v36.6
			C188.2,199.6,107.3,236.9,107.3,236.9z M152.9,208.8c-19.3,19.5,11.6,17.8,28-14.4l15.9,6.7c7.1-10.9,13.4-23.3,17.9-37.3h-31.3
			C175.8,182.2,164.4,197.2,152.9,208.8z"/>
	</g>
</g>
</svg>
