<?xml version="1.0" encoding="utf-8"?>
<!-- Generator: Adobe Illustrator 21.1.0, SVG Export Plug-In . SVG Version: 6.00 Build 0)  -->
<svg version="1.1" id="Layer_1" xmlns="http://www.w3.org/2000/svg" xmlns:xlink="http://www.w3.org/1999/xlink" width="200.8" height="200"
	 viewBox="0 0 200.8 200" enable-background="new 0 0 200.8 200" xml:space="preserve">
<g>
	<rect fill="#F26522" width="200.8" height="200"/>
	<g>
		<defs>
			<rect id="SVGID_1_" width="200.8" height="200"/>
		</defs>
		<clipPath id="SVGID_2_">
			<use xlink:href="#SVGID_1_"  overflow="visible"/>
		</clipPath>
		<path clip-path="url(#SVGID_2_)" fill="#FFFFFF" d="M96.6,67c-0.7-4.4-2.2-8.8-2.5-9.4c-0.3-0.6-1.7-5.1-3.8-8.9
			c0.7,4.4,2.2,8.8,2.5,9.4C93.1,58.7,94.5,63.2,96.6,67 M76.7,66.5c-0.6,0-1.1-0.5-1.1-1.2c0-0.7,0.5-1.2,1.1-1.2
			c0.6,0,1.1,0.5,1.1,1.2C77.8,66,77.3,66.5,76.7,66.5 M81,101.6c-0.7,0-1.4,0-1.8-0.6c-0.1-0.2-0.2-0.5-0.3-0.7c0-0.1,0-0.2,0-0.3
			c-1.7-9.7-1.7-19.7-0.1-29.4c0.1-0.6,0.2-1.2,0.6-1.5c0.3-0.3,0.8-0.3,1.3-0.3c6.7-0.2,13.4,0.9,19.7,3.4
			c-5.1-3.4-10.9-5.3-16.9-5.6c-1.2-0.1-2.5-0.1-3.2-1.2c-0.4-0.5-0.5-1.2-0.6-1.8c-0.5-1.6-1.8-2.9-3.3-3.4
			c1.8,0.4,3.5,1.7,4.3,3.5c0.2,0.4,0.6,0.5,1,0.3c1.3-0.7,2.9-0.8,4.4-1.2c1.7-0.5,3.5-1.9,3.3-3.8l-7,2.4l3.2-2.1l-0.1,0
			c0.2-0.1,0.3-0.2,0.5-0.3c1.2-0.9,2.1-2.5,1.4-3.8L81,59.5l2.8-3l0,0c0.1-0.1,0.2-0.2,0.3-0.3c1-1.2,1.5-3,0.5-4.2l-5,5.7l1.9-3.6
			l0,0c0.1-0.1,0.1-0.2,0.2-0.4c0.6-1.4,0.7-3.3-0.5-4.1l-3.6,7v0l0.9-3.6l0,0c0.1-0.3,0.2-0.6,0.2-0.9c0.3-1.5-0.1-3.5-1.4-3.9
			L75.3,56l0.1-4.2l0,0c0-0.1,0-0.2,0-0.4c-0.1-1.5-0.9-3.2-2.3-3.3l0,8l-0.9-3.9l0,0.1c0-0.2-0.1-0.5-0.1-0.7c-0.4-1.5-1.6-3-3-2.7
			l1.9,7.6l-1.7-3.5l0,0.1c-0.1-0.2-0.2-0.4-0.3-0.6c-0.7-1.3-2.3-2.4-3.5-1.7l3.6,7l-2.1-2.4l0,0c-0.3-0.4-0.6-0.7-0.9-1.1
			c-1-1.1-2.8-1.8-3.9-0.8l5.1,5.8l-3-2.1l0,0c-0.2-0.1-0.4-0.3-0.6-0.4c-1.2-0.8-3.1-1-3.9,0.3l6.3,4.3l-4-1.5l0.1,0
			c-0.1,0-0.1,0-0.2-0.1c-1.4-0.4-3.2-0.2-3.8,1.2c2,1.2,4.4,1.4,6.5,2.2c2.5,1,5,3.3,4.2,6.3c-0.3,1.1-1.1,2.1-2,2.7
			c-2.1,1.4-4.6,1.3-7,1.2c-4-0.2-7.9-0.6-11.8-1.2C41.9,71.6,35,70,30.5,64.9c-0.2-0.2-0.3-0.4-0.5-0.5c1.2,4.3,4.4,7.9,8,10
			c3.7,2.2,8.1,3.1,12.4,3.3c-7.1,1.2-14.7-1.5-19.7-7.1c0.6,1.7,1.5,3.3,2.6,4.7c2.2,3.1,5.5,6.2,5.5,6.2l0.1,0.1
			c0,0-0.1,0-0.1-0.1c4.7,4.7,11.6,6.7,17.8,5.2c-2.1,1.1-4.4,1.6-6.7,1.5l-0.1,0c-0.5,0-1.4-0.2-1.8-0.3c-0.5-0.1-1.1-0.3-1.1-0.3
			l0,0c0,0-0.1,0-0.1,0c0.1,0,0.1,0.1,0.2,0.1c0.4,0.4,1.9,1.6,4.3,2.6c0,0-0.1,0-0.1,0c4.2,1.7,10.8,2.9,10.8,2.9h0
			c10.6,6.2,19.5,15.6,25.4,26.9c-0.8-4.1-2.6-8-5.2-11.1c3,2.5,5.4,5.8,7,9.4c0,0,0.8-0.7,1.9-1.8l9.4-8.8l-0.1,0
			C94.6,103.9,87.8,101.7,81,101.6 M98.7,68.2c-0.2-6.2-1.3-12.7-1.5-13.6c-0.2-0.9-1.2-7.4-2.9-13.3c0.2,6.2,1.3,12.7,1.5,13.6
			C96,55.8,97,62.3,98.7,68.2 M124.1,66.5c-0.6,0-1.1-0.5-1.1-1.2c0-0.7,0.5-1.2,1.1-1.2c0.6,0,1.1,0.5,1.1,1.2
			C125.2,66,124.7,66.5,124.1,66.5 M150.4,77.6c4.3-0.1,8.6-1,12.4-3.3c3.6-2.1,6.8-5.7,8-10c-0.2,0.1-0.3,0.3-0.5,0.5
			c-4.6,5.1-11.4,6.8-17.7,7.7c-3.9,0.6-7.9,0.9-11.8,1.2c-2.4,0.1-4.9,0.2-7-1.2c-0.9-0.6-1.7-1.6-2-2.7c-0.9-3.1,1.7-5.4,4.2-6.3
			c2.2-0.8,4.5-1,6.5-2.2c-0.6-1.4-2.4-1.7-3.8-1.2c-1.4,0.4-2.6,1.4-4.1,1.5l6.3-4.3c-0.8-1.2-2.7-1.1-3.9-0.3
			c-1.2,0.8-2.2,2-3.6,2.5l5.1-5.8c-1.1-1-2.8-0.3-3.9,0.8c-1,1.1-1.7,2.5-2.9,3.4l3.6-7c-1.3-0.7-2.8,0.4-3.5,1.7
			c-0.7,1.3-1.1,2.9-2,4l1.9-7.6c-1.4-0.3-2.6,1.2-3,2.7c-0.4,1.5-0.4,3.1-1,4.5l0-8c-1.4,0.1-2.3,1.8-2.3,3.3
			c-0.1,1.5,0.4,3,0.1,4.5l-1.8-7.5c-1.4,0.5-1.8,2.4-1.4,3.9c0.3,1.5,1.1,2.9,1.2,4.4l-3.6-7c-1.2,0.8-1.2,2.7-0.5,4.1
			c0.6,1.4,1.7,2.5,2.1,3.9l-5-5.7c-1,1.1-0.5,3,0.5,4.2c1,1.2,2.3,2,3,3.3l-6.3-4.3c-0.7,1.3,0.2,3,1.4,3.8
			c1.2,0.9,2.6,1.3,3.6,2.4l-7-2.4c-0.2,1.9,1.6,3.3,3.3,3.8c1.5,0.4,3.1,0.5,4.4,1.2c0.4,0.2,0.8,0,1-0.3c0.9-1.8,2.5-3.1,4.3-3.5
			c-1.5,0.5-2.8,1.8-3.3,3.4c-0.2,0.6-0.3,1.3-0.6,1.8c-0.7,1-2.1,1.1-3.2,1.2c-6,0.3-11.8,2.2-16.9,5.6c6.3-2.4,13-3.6,19.7-3.4
			c0.4,0,0.9,0,1.3,0.3c0.4,0.3,0.6,1,0.6,1.5c1.6,9.7,1.6,19.7-0.1,29.4c0,0.1,0,0.2-0.1,0.3c-0.1,0.3-0.1,0.5-0.3,0.7
			c-0.4,0.6-1.2,0.6-1.8,0.6c-6.8,0.1-13.6,2.3-19.3,6.2l0,0l8.1,7.7l0,0c1.7,1.6,3,2.9,3,2.9c1.6-3.7,4-6.9,7-9.4
			c-2.6,3.2-4.4,7-5.2,11.1c5.8-11.3,14.8-20.7,25.4-26.9l0,0c0,0,5.4-0.9,9.6-2.4c3.7-1.2,5.7-3.1,5.7-3.1
			c-0.4,0.1-0.7,0.2-1.1,0.3c-0.1,0-0.2,0-0.4,0.1c-0.2,0-0.5,0.1-0.7,0.1c-0.1,0-0.3,0-0.4,0c-2.5,0.2-5-0.3-7.2-1.5
			c6.3,1.5,13.2-0.6,17.8-5.2c0,0,3.6-3.5,5.9-6.8l0,0c0.9-1.3,1.6-2.7,2.1-4.2C165.2,76.1,157.5,78.8,150.4,77.6 M108,58.1
			c0.3-0.6,1.8-5,2.5-9.4c-2.1,3.8-3.5,8.3-3.8,8.9c-0.3,0.6-1.8,5-2.5,9.4C106.3,63.2,107.7,58.7,108,58.1 M100.4,69.1
			c0.8-8.8,0.8-16.3,0.7-17.6c0-1.4,0.1-10.8-0.7-19.5c-0.8,8.8-0.8,18.2-0.7,19.5C99.7,52.8,99.6,60.3,100.4,69.1 M102.1,68.9
			c2.4-9,4.1-18.1,4.5-27.4C104.2,50.5,102.5,59.6,102.1,68.9"/>
		<path clip-path="url(#SVGID_2_)" fill="#FFFFFF" d="M137.4,137.6c0,1.1,0,2.2,0,3.4c0,0.2,0,0.4,0,0.5h1.3v-0.6c0-1.2,0-2.3,0-3.5
			c0-0.3,0.1-0.5,0.2-0.8c0.7-1.2,1.4-2.3,2.1-3.5c0.5-0.8,0.9-1.5,1.4-2.3c-0.5,0-0.9,0-1.3,0c-0.3,0-0.5,0.1-0.7,0.4
			c-0.7,1.2-1.4,2.3-2.1,3.5c-0.1,0.2-0.3,0.5-0.5,0.8c-0.1-0.2-0.2-0.4-0.3-0.6c-0.7-1.2-1.5-2.5-2.2-3.7c-0.1-0.1-0.2-0.3-0.3-0.3
			c-0.5,0-1,0-1.6,0c1.2,1.9,2.3,3.8,3.5,5.6C137.3,136.8,137.4,137.2,137.4,137.6 M83.5,130.9h-1.3v10.6h1.3V130.9z M60.2,138.9
			c0.5,2.1,2.2,3.2,4.4,2.9c1.9-0.2,3.2-1.9,3.2-4c0-2.2,0-4.4,0-6.5c0-0.1,0-0.3,0-0.4h-1.4c0,0.2,0,0.4,0,0.6c0,2.1,0,4.2,0,6.2
			c0,1.6-0.9,2.6-2.2,2.7c-1.4,0.1-2.3-0.7-2.6-2.3c-0.1-0.3-0.1-0.6-0.1-0.9c0-1.9,0-3.8,0-5.8v-0.6h-1.4c0,0.1,0,0.2,0,0.3
			c0,2.2,0,4.5,0,6.7C60,138.2,60.1,138.6,60.2,138.9 M109.8,149v1.3c4.1,0.2,44.7,0,49-0.6C156.7,149.2,111.2,148.6,109.8,149
			 M71.9,132.9c0.2,0.2,0.2,0.3,0.3,0.5c1.7,2.6,3.3,5.2,5,7.8c0.1,0.1,0.2,0.4,0.4,0.4c0.5,0,1.1,0,1.6,0v-10.7h-1.4v8.5
			c0,0-0.1,0-0.1,0c-0.1-0.1-0.2-0.3-0.3-0.4c-1.6-2.6-3.3-5.2-4.9-7.9c-0.1-0.1-0.2-0.3-0.4-0.3c-0.5,0-1,0-1.6,0v10.7h1.3V132.9z
			 M117.7,139.9c-0.5,0.5-1.2,0.6-1.8,0.5c-0.7-0.1-1.3-0.5-1.7-1.1c-0.4,0.4-0.7,0.7-1.2,1.2c0.2,0.2,0.4,0.3,0.6,0.4
			c1.4,1.1,2.9,1.3,4.5,0.5c1.2-0.6,1.7-1.7,1.7-3c0-1.4-0.8-2.2-2-2.6c-0.3-0.1-0.5-0.2-0.8-0.3c-0.4-0.2-0.8-0.3-1.2-0.5
			c-0.7-0.3-0.9-0.9-0.9-1.6c0.1-0.6,0.5-1.1,1.2-1.3c1-0.3,1.8,0,2.5,0.8c0.4-0.3,0.7-0.7,1.2-1c-0.4-0.3-0.7-0.6-1-0.8
			c-1.3-0.6-2.5-0.6-3.8,0c-1.4,0.8-1.9,2.4-1.3,4c0.4,0.8,1,1.3,1.8,1.6c0.7,0.3,1.4,0.5,2.1,0.8
			C118.5,137.9,118.6,139.2,117.7,139.9 M123.5,130.9h-1.4v10.6h1.4V130.9z M91,150.3v-1.3c-0.1,0-0.2,0-0.3,0c-6.2,0-12.5,0-18.7,0
			c-4.7,0-9.3,0.1-14,0.1c-4.5,0.1-9.1,0.2-13.6,0.3c-0.7,0-1.5,0.1-2.2,0.2C46.3,150.1,89.7,150.6,91,150.3 M128.6,141.5h1.4v-9.3
			h3.1c0-0.4,0-0.7,0-1c0-0.1,0-0.3,0-0.4h-7.7v1.4h3.2V141.5z M106.2,136.8c0.5,0,0.9,0,1.3,0c0.1,0,0.3,0.1,0.3,0.3
			c0.7,1.4,1.5,2.8,2.2,4.2c0.1,0.1,0.2,0.3,0.3,0.3c0.5,0,1,0,1.6,0c-0.9-1.7-1.8-3.2-2.7-4.8c0.2-0.1,0.4-0.1,0.6-0.2
			c1.1-0.4,1.8-1.6,1.8-2.9c-0.1-1.4-0.8-2.5-2.1-2.7c-1.5-0.2-3-0.1-4.5-0.2v10.7h1.3V136.8z M106.2,132.2c0.8,0,1.6,0,2.3,0
			c1.2,0.1,1.8,1,1.5,2.2c-0.2,0.7-0.7,1-1.2,1.1c-0.8,0.1-1.7,0.1-2.6,0.2V132.2z M102.5,140.1h-5.3v-3.3h4.6v-1.4h-4.6v-3.1h5
			v-1.4h-6.4v10.6h6.7V140.1z M97.8,153.2c2,0,3.5-1.6,3.5-3.8c0-2.3-1.4-3.8-3.5-3.8c-2,0-3.5,1.6-3.5,3.8
			C94.3,151.6,95.8,153.2,97.8,153.2 M97.8,146.6c1.5,0,2.6,1.2,2.6,2.9c0,1.6-1.1,2.9-2.6,2.8c-1.4,0-2.5-1.2-2.5-2.9
			C95.3,147.8,96.4,146.6,97.8,146.6 M106.8,148.9h-3v-2.1h3.3v-1h-4.2v7.2h0.9v-3.1h3V148.9z M127.6,162.5c0.2-0.1,0.4-0.2,0.5-0.3
			c0.3-0.4,0.8-0.8,0.9-1.3c0.6-1.7-0.5-3.3-2.2-3.4c-1.4-0.1-2.7,0-4.1,0v10.7c1.4,0,2.7,0,4,0c0.2,0,0.5-0.1,0.7-0.2
			c1.3-0.4,2.1-1.4,2.1-2.6c0-0.7-0.1-1.3-0.4-1.8C128.8,163,128.3,162.7,127.6,162.5 M124.1,158.8c0.8,0,1.6-0.1,2.4,0
			c0.8,0.1,1.2,0.7,1.2,1.5c0,0.8-0.4,1.4-1.1,1.5c-0.8,0.1-1.6,0-2.5,0V158.8z M126.8,166.7c-0.9,0.2-1.8,0.2-2.8,0.3v-3.7
			c0.9,0,1.8-0.1,2.7,0c0.9,0.1,1.4,0.8,1.4,1.7C128.1,165.8,127.7,166.5,126.8,166.7 M107,163.3h4.6V162H107v-3.2h5v-1.3h-6.4v10.7
			h6.7v-1.4H107V163.3z M118.8,162.6c-0.8-0.3-1.6-0.6-2.4-0.9c-0.8-0.3-1.1-0.9-1-1.7c0.1-0.7,0.7-1.2,1.4-1.3
			c0.9-0.2,1.7,0.1,2.3,0.9c0.4-0.4,0.7-0.7,1.1-1.1c-0.1-0.1-0.1-0.2-0.2-0.3c-1.1-1-2.3-1.1-3.7-0.8c-1.4,0.3-2.3,1.3-2.4,2.6
			c-0.1,1.4,0.5,2.5,1.8,3.2c0.4,0.2,0.9,0.3,1.3,0.5c0.3,0.1,0.7,0.3,1,0.4c0.8,0.5,1,1.5,0.3,2.2c-0.3,0.3-0.8,0.6-1.2,0.7
			c-1,0.2-1.8-0.1-2.5-1c-0.4,0.3-0.8,0.6-1.2,1c0.1,0.1,0.2,0.2,0.2,0.3c0.1,0.1,0.2,0.2,0.2,0.2c1.1,1,2.4,1.1,3.7,0.8
			c1.7-0.3,2.7-1.7,2.5-3.6C120.2,163.7,119.7,163,118.8,162.6 M139.3,157.5h-1.3c0,2.2,0,4.3,0,6.4c0,0.4,0,0.8-0.1,1.1
			c-0.3,1.3-1.1,2-2.3,2c-1.1,0-2.1-0.7-2.4-1.9c-0.1-0.4-0.1-0.9-0.2-1.3c0-1.9,0-3.8,0-5.8v-0.6h-1.4v0.5c0,2.1,0,4.2,0,6.3
			c0,2.3,1.5,4,3.6,4.1c2.3,0.1,4-1.4,4.1-3.8c0.1-2.3,0-4.7,0-7C139.3,157.6,139.3,157.5,139.3,157.5 M159.4,163.2v-1.1h-3.5v1.4
			h2.1c0,0.9,0,1.7,0,2.6c0,0.3-0.1,0.5-0.4,0.6c-0.5,0.1-1,0.2-1.5,0.3c-2.7,0.2-4.6-1.9-4.3-4.8c0.2-2.2,1.8-3.8,3.9-3.7
			c1,0,1.8,0.4,2.4,1.1c0.4-0.4,0.7-0.7,1.1-1.1c-0.3-0.2-0.5-0.5-0.8-0.6c-1-0.7-2.1-0.7-3.3-0.7c-2.3,0.1-4.2,1.7-4.7,4.2
			c-0.5,2.6,0.5,5.2,2.5,6.3c2.1,1.1,4.2,0.8,6.2-0.2c0.1-0.1,0.2-0.4,0.2-0.5C159.4,165.7,159.4,164.5,159.4,163.2 M46.9,157.5
			h-1.4v0.6c0,2.1,0,4.3,0,6.4c0,0.4,0,0.9-0.1,1.3c-0.2,0.9-0.8,1.4-1.7,1.2c-0.7-0.1-0.9-0.6-1.2-1.2c-0.4,0.1-0.8,0.3-1.2,0.4
			c0.1,1.1,0.8,1.9,1.8,2.2c2.1,0.6,3.8-0.8,3.8-3.1c0-2.4,0-4.8,0-7.3C46.9,157.7,46.9,157.6,46.9,157.5 M148.5,161.5
			c0.8-2-0.5-4-2.5-4.1c-1.2,0-2.4,0-3.6,0c-0.1,0-0.2,0-0.3,0v10.7h1.3v-4.7c0.4,0,0.7,0,1.1,0c0.3,0,0.5,0.1,0.6,0.4
			c0.7,1.4,1.4,2.7,2.1,4.1c0.1,0.1,0.2,0.3,0.3,0.3c0.5,0,0.9,0,1.5,0c-0.9-1.7-1.8-3.3-2.7-4.9C147.4,163,148.1,162.5,148.5,161.5
			 M143.4,162.1v-3.4c1,0,2-0.1,3,0.3c0.6,0.3,0.9,0.8,0.9,1.5c0,0.7-0.2,1.2-0.8,1.5c-0.3,0.1-0.6,0.2-0.8,0.2
			C144.9,162.2,144.2,162.1,143.4,162.1 M76.9,157.9c-0.1-0.3-0.3-0.5-0.6-0.4c-0.4,0.1-0.7-0.2-1,0.4c-1.1,2.8-2.3,5.6-3.4,8.4
			c-0.2,0.6-0.5,1.2-0.8,1.9c0.5,0,0.9,0,1.3,0c0.2,0,0.4-0.2,0.4-0.3c0.3-0.7,0.5-1.3,0.8-2c0.1-0.1,0.3-0.3,0.4-0.3
			c1.4,0,2.7,0,4.1,0c0.3,0,0.4,0.1,0.5,0.4c0.2,0.6,0.4,1.3,0.7,1.9c0,0.1,0.2,0.3,0.3,0.3c0.5,0,0.9,0,1.5,0
			c-0.1-0.2-0.2-0.4-0.2-0.6C79.5,164.4,78.1,161.1,76.9,157.9 M74.1,164.2c0.6-1.6,1.2-3.2,1.9-4.9c0.6,1.7,1.2,3.3,1.8,4.9H74.1z
			 M101.3,166.1c-0.2-0.2-0.2-0.3-0.3-0.5c-1.6-2.6-3.3-5.2-4.9-7.8c-0.1-0.2-0.3-0.4-0.4-0.4c-0.5,0-1,0-1.6,0v10.7h1.3v-8.7
			c0.2,0.2,0.3,0.4,0.3,0.5c1.7,2.6,3.3,5.2,5,7.8c0.1,0.2,0.3,0.3,0.4,0.4c0.5,0,1,0,1.5,0v-10.7h-1.4V166.1z M54.2,157.2
			c-3,0-5.3,2.4-5.3,5.5c0,3.2,2.3,5.6,5.3,5.6c3,0,5.1-2.4,5.1-5.6C59.3,159.5,57.2,157.2,54.2,157.2 M55.8,166.6
			c-1.4,0.7-2.8,0.5-4.1-0.6c-1.4-1.3-1.7-3.8-0.7-5.6c0.9-1.6,2.8-2.3,4.5-1.6c1.5,0.6,2.4,2.2,2.4,4.2
			C57.9,164.5,57.3,165.9,55.8,166.6 M68.1,161.8H63v-4.4h-1.3v10.7H63v-4.9h5.1v4.9h1.3v-10.7h-1.3V161.8z M92.7,130.9
			c-1,2.8-2,5.7-3,8.6c-0.1-0.2-0.1-0.3-0.2-0.4c-0.8-2.3-1.5-4.6-2.3-6.9c-0.5-1.4-0.5-1.4-1.8-1.3c0,0-0.1,0-0.2,0
			c0.1,0.2,0.1,0.3,0.2,0.5c1.1,3.1,2.3,6.2,3.4,9.3c0.4,1,0.1,0.8,1.1,0.8c0.4,0,0.5-0.1,0.7-0.5c1.1-3.2,2.3-6.3,3.4-9.5
			c0.1-0.2,0.1-0.4,0.2-0.7H92.7z M89.7,166.1c-0.2-0.3-0.3-0.4-0.3-0.5c-1.6-2.6-3.2-5.1-4.7-7.7c-0.1-0.1-0.2-0.4-0.3-0.4
			c-0.6,0-1.2,0-1.7,0v10.7h1.4v-8.7c0.2,0.3,0.3,0.4,0.4,0.5c1.7,2.6,3.3,5.2,5,7.8c0.1,0.2,0.3,0.3,0.4,0.3c0.5,0,1,0,1.5,0v-10.7
			h-1.4V166.1z"/>
	</g>
</g>
</svg>
