<?xml version="1.0" encoding="UTF-8"?>
<svg id="Layer_1" xmlns="http://www.w3.org/2000/svg" version="1.1" viewBox="0 0 375.21 433.44">
  <!-- Generator: Adobe Illustrator 29.5.1, SVG Export Plug-In . SVG Version: 2.1.0 Build 141)  -->
  <defs>
    <style>
      .st0, .st1 {
        fill: #fff;
      }

      .st1, .st2 {
        fill-rule: evenodd;
      }

      .st3 {
        fill: none;
        stroke: #beaa75;
        stroke-miterlimit: 3.86;
        stroke-width: 1.44px;
      }

      .st4 {
        fill: #beaa75;
      }

      .st2 {
        fill: #0a195c;
      }
    </style>
  </defs>
  <path class="st2" d="M57.35,394.52h1.53l5.86-17.56c.48-1.48.86-2.26,2.48-2.45v-1.13c-1.24.03-2.45.09-3.69.12-1.08-.03-2.17-.09-3.25-.12v1.13c1.4.22,2.58.38,2.58,2.14,0,1.19-1.02,4.49-1.43,5.81l-1.66,5.21-5-14.29h-1.43l-4.59,14.51-2.71-8.36c-.26-.79-.92-2.7-.92-3.49,0-1.48,1.66-1.35,2.71-1.54v-1.13c-1.88.03-3.73.09-5.61.12-1.59-.03-3.22-.09-4.81-.12v1.13c2.2.34,2.23.88,2.93,2.8l6.02,17.22h1.56l4.75-13.54,4.68,13.54M72.02,394.18c1.82-.03,3.6-.09,5.42-.13,4.4.03,8.79.1,13.19.13-.03-.85-.1-1.66-.13-2.51.03-1.19.1-2.36.13-3.55h-1.27c-.8,3.55-2.2,4.62-5.8,4.62s-3.66-1.88-3.66-4.84v-3.68c2.93,0,3.76.5,4.36,3.39h1.27c-.03-1.29-.1-2.61-.13-3.9.03-1.44.1-2.89.13-4.33h-1.27c-.13,2.92-1.78,3.39-4.36,3.39v-5.81c0-.25,0-1.63.09-1.79.19-.34,2.23-.34,2.61-.34,3.06,0,4.87.97,5.41,4.08h1.37l-.26-5.53c-3.89.03-7.8.09-11.69.12-1.82-.03-3.6-.09-5.42-.12v1.13c3.06-.09,2.99,1.38,2.99,3.96v10.62c0,2.58.06,4.05-2.99,3.96v1.13ZM99.26,392.39c1.43,1.45,3.5,2.14,5.54,2.14,3.92,0,7.55-2.2,7.55-6.44s-3.22-5.69-6.62-7.13c-1.82-.82-4.24-1.48-4.24-3.83,0-1.7,1.59-2.58,3.15-2.58,2.77,0,4.59,2.11,5.16,4.52h1.37l-.19-5.65h-1.37l-.41,1.23c-1.27-1.16-3.06-1.54-4.78-1.54-3.69,0-6.69,2.07-6.69,5.94,0,3.46,2.33,5.03,5.19,6.25,2.23.94,5.29,1.73,5.29,4.65,0,1.95-1.78,3.14-3.63,3.14-3.53,0-5-2.64-5.89-5.5h-1.27v6.54h1.4l.45-1.73ZM139.5,373.38h-20.51l-.19,5.97h1.37c.51-2.73,1.69-4.65,4.81-4.4,2.01.16,1.91.03,1.91,2.29v11.85c0,2.8.03,4.05-3.22,3.96v1.13c1.88-.03,3.76-.09,5.64-.13,1.88.03,3.76.1,5.64.13v-1.13c-3.25.09-3.19-1.16-3.19-3.96v-11.85c-.06-2.48-.16-2.29,1.91-2.29,2.77,0,4.33,1.76,4.65,4.4h1.37l-.19-5.97ZM145.86,394.18c1.82-.03,3.6-.09,5.42-.13,4.39.03,8.79.1,13.19.13-.03-.85-.1-1.66-.13-2.51.03-1.19.1-2.36.13-3.55h-1.27c-.8,3.55-2.2,4.62-5.8,4.62s-3.66-1.88-3.66-4.84v-3.68c2.93,0,3.76.5,4.37,3.39h1.27c-.03-1.29-.1-2.61-.13-3.9.03-1.44.1-2.89.13-4.33h-1.27c-.13,2.92-1.78,3.39-4.37,3.39v-5.81c0-.25,0-1.63.1-1.79.19-.34,2.23-.34,2.61-.34,3.06,0,4.87.97,5.41,4.08h1.37l-.25-5.53c-3.89.03-7.8.09-11.69.12-1.82-.03-3.6-.09-5.42-.12v1.13c3.06-.09,2.99,1.38,2.99,3.96v10.62c0,2.58.06,4.05-2.99,3.96v1.13ZM184.38,383.81c2.61-.41,5-2.17,5-4.96,0-2.2-1.08-3.9-3.15-4.71-1.4-.6-3.73-.69-5.26-.75-1.72.03-3.44.09-5.16.12-1.82-.03-3.6-.09-5.42-.12v1.13c3.06-.09,2.99,1.38,2.99,3.96v10.62c0,2.58.06,4.05-2.99,3.96v1.13c1.82-.03,3.6-.09,5.42-.13,1.81.03,3.66.1,5.48.13v-1.13c-3.06.09-3.03-1.38-3.03-3.96v-4.15c.16,0,.35-.03.51-.03.89-.06,2.26,1.51,3.31,2.95l4.52,6.32c1.05-.03,2.1-.09,3.15-.13,1.05.03,2.1.1,3.15.13v-1.13c-.89-.19-1.37-.41-2.04-1.1-.76-.82-1.46-1.85-2.13-2.76l-4.36-5.37ZM178.26,383.46v-5.37c0-.44,0-2.58.09-2.92.09-.38,1.18-.34,1.53-.34,2.99,0,4.2,1.51,4.2,4.37,0,3.11-1.56,4.27-4.62,4.27h-1.21ZM217.11,394.62h1.56v-15.11c0-1.04,0-2.95.48-3.86.45-.85,1.47-.97,2.36-1.13v-1.13c-1.27.03-2.55.09-3.82.12-1.21-.03-2.42-.09-3.63-.12v1.13c3.03.12,3.03,2.42,3.03,4.81v8.36l-12.58-14.29c-1.21.03-2.39.09-3.6.12-1.02-.03-2.01-.09-3.03-.12v1.13c1.75.16,2.17.72,3.19,2.14v12.63c0,2.23-.19,3.52-2.83,3.77v1.13c1.21-.03,2.42-.09,3.63-.13,1.27.03,2.58.1,3.85.13v-1.13c-3.06-.12-3.06-2.58-3.06-4.96v-9.71l14.46,16.24ZM259.97,394.02h1.27v-7.07h-1.27c-.57,3.3-2.52,6.06-6.18,6-5.06-.06-6.56-4.81-6.56-9.11,0-3.99,1.43-9.17,6.37-9.17,3.28,0,5.35,2.2,6.02,5.21h1.4l-.29-6.6h-1.37l-.48,1.79c-1.81-1.41-3.73-1.98-6.02-1.98-6.5,0-11.15,4.65-11.15,11.09s4.43,10.34,10.73,10.34c2.48,0,5.06-.63,6.91-2.33l.6,1.82ZM271.8,387.77h7.04l.67,1.79c.19.47.61,1.57.61,2.08,0,1.35-1.69,1.29-2.64,1.41v1.13c1.66-.03,3.34-.09,5-.13,1.91.03,3.82.1,5.73.13v-1.13c-.77-.09-1.59-.25-2.16-.75-.64-.63-1.27-2.2-1.62-3.05l-6.56-16.15h-1.53l-6.31,14.95c-.83,1.95-1.75,4.97-4.36,5v1.13c1.21-.03,2.42-.09,3.63-.13,1.34.03,2.67.1,4.01.13v-1.13c-1.18-.09-2.64-.19-2.64-1.73,0-.85.48-1.85.76-2.64l.38-.91ZM295.71,389.09c0,2.58.07,4.05-2.99,3.96v1.13c1.85-.03,3.54-.09,5.26-.13,1.94.03,3.88.1,5.83.13v-1.13c-3.25.09-3.22-1.16-3.22-3.96v-4.43h2.87c3.53,0,7.99-1.29,7.99-5.59,0-4.68-4.65-5.62-8.44-5.69-1.66.03-3.34.09-5,.12-1.72-.06-3.44-.12-5.29-.12v1.13c3.06-.09,2.99,1.44,2.99,4.02v10.56ZM272.41,386.2l2.99-7.22,2.8,7.22h-5.8ZM300.59,383.21v-6.85c0-1.57-.03-1.48,1.62-1.54,2.67,0,3.95,1.57,3.95,4.15,0,3.39-1.75,4.24-4.91,4.24h-.67ZM317.74,394.18c1.82-.03,3.6-.09,5.41-.13,4.4.03,8.79.1,13.19.13-.03-.85-.1-1.66-.13-2.51.03-1.19.1-2.36.13-3.55h-1.27c-.8,3.55-2.2,4.62-5.8,4.62s-3.66-1.88-3.66-4.84v-3.68c2.93,0,3.76.5,4.37,3.39h1.27c-.03-1.29-.1-2.61-.13-3.9.03-1.44.1-2.89.13-4.33h-1.27c-.13,2.92-1.78,3.39-4.37,3.39v-5.81c0-.25,0-1.63.1-1.79.19-.34,2.23-.34,2.61-.34,3.06,0,4.87.97,5.41,4.08h1.37l-.26-5.53c-3.89.03-7.8.09-11.69.12-1.81-.03-3.6-.09-5.41-.12v1.13c3.06-.09,2.99,1.38,2.99,3.96v10.62c0,2.58.06,4.05-2.99,3.96v1.13ZM38.87,329.65c3.09,0,2.99,1.41,2.99,4.02v7.54c0,6.54,3.66,8.45,9.24,8.45s8.82-2.83,8.82-8.51v-5.87c0-1.23-.13-3.24.44-4.34.48-.91,1.47-1.13,2.42-1.29v-1.13c-1.27.03-2.58.09-3.86.13-1.21-.03-2.42-.09-3.63-.13v1.13c.96.09,1.91.41,2.45,1.29.61.97.57,3.21.57,4.34v6.53c0,3.8-2.1,5.81-6.08,5.81-4.55,0-5.51-2.39-5.51-6.38v-7.57c0-2.58-.03-4.12,3.06-4.02v-1.13c-1.98.03-3.95.09-5.92.13-1.66-.03-3.34-.09-5-.13v1.13ZM86.29,349.75h1.56v-15.11c0-1.04,0-2.95.48-3.87.45-.85,1.46-.97,2.36-1.13v-1.13c-1.27.03-2.55.09-3.82.13-1.21-.03-2.42-.09-3.63-.13v1.13c3.03.12,3.03,2.42,3.03,4.81v8.36l-12.58-14.29c-1.21.03-2.39.09-3.6.13-1.02-.03-2.01-.09-3.03-.13v1.13c1.75.16,2.17.72,3.19,2.14v12.63c0,2.23-.19,3.52-2.83,3.77v1.13c1.21-.03,2.42-.09,3.63-.12,1.27.03,2.58.09,3.85.12v-1.13c-3.06-.13-3.06-2.58-3.06-4.96v-9.71l14.46,16.24ZM98.57,344.23c0,2.58.1,4.05-2.99,3.96v1.13c1.75-.03,3.51-.09,5.26-.12,1.88.03,3.76.09,5.61.12v-1.13c-3.03.06-2.99-1.26-2.99-3.83v-10.68c0-2.58-.1-4.05,2.99-4.02v-1.13c-1.85.03-3.76.09-5.64.13-1.75-.03-3.47-.09-5.22-.13v1.13c3.09-.06,2.99,1.41,2.99,4.02v10.56ZM166.49,338.6v-5.37c0-.44,0-2.58.1-2.92.09-.38,1.18-.35,1.53-.35,2.99,0,4.2,1.51,4.2,4.37,0,3.11-1.56,4.27-4.62,4.27h-1.21ZM121.58,349.66l7.01-16.62c.8-1.92,1.3-3.27,3.66-3.39v-1.13c-1.37.03-2.74.09-4.11.13-1.27-.03-2.55-.09-3.82-.13v1.13c1.21.09,2.64.19,2.64,1.73,0,1.29-.89,3.58-1.4,4.81l-3.03,7.54-3.95-10.46c-.16-.5-.57-1.6-.57-2.1,0-1.48,1.56-1.48,2.68-1.51v-1.13c-1.91.03-3.82.09-5.73.13-1.75-.03-3.47-.09-5.22-.13v1.13c2.61.44,2.58.72,3.63,3.36l6.69,16.65h1.53ZM135.68,349.32c1.82-.03,3.6-.09,5.42-.12,4.39.03,8.79.09,13.19.12-.03-.85-.1-1.66-.13-2.51.03-1.19.1-2.36.13-3.55h-1.27c-.8,3.55-2.2,4.62-5.8,4.62s-3.66-1.88-3.66-4.84v-3.68c2.93,0,3.76.5,4.37,3.39h1.27c-.03-1.29-.1-2.61-.13-3.9.03-1.44.1-2.89.13-4.33h-1.27c-.13,2.92-1.78,3.39-4.37,3.39v-5.81c0-.25,0-1.63.1-1.79.19-.35,2.23-.35,2.61-.35,3.06,0,4.87.97,5.41,4.08h1.37l-.26-5.53c-3.89.03-7.8.09-11.69.13-1.82-.03-3.6-.09-5.42-.13v1.13c3.06-.09,2.99,1.38,2.99,3.96v10.62c0,2.58.06,4.05-2.99,3.96v1.13ZM172.6,338.95c2.61-.41,5-2.17,5-4.96,0-2.2-1.08-3.9-3.15-4.71-1.4-.6-3.73-.69-5.26-.75-1.72.03-3.44.09-5.16.13-1.82-.03-3.6-.09-5.42-.13v1.13c3.06-.09,2.99,1.38,2.99,3.96v10.62c0,2.58.06,4.05-2.99,3.96v1.13c1.82-.03,3.6-.09,5.42-.12,1.82.03,3.66.09,5.48.12v-1.13c-3.06.09-3.03-1.38-3.03-3.96v-4.15c.16,0,.35-.03.51-.03.89-.06,2.26,1.51,3.31,2.95l4.52,6.31c1.05-.03,2.1-.09,3.15-.12,1.05.03,2.1.09,3.15.12v-1.13c-.89-.19-1.37-.41-2.04-1.1-.77-.82-1.47-1.85-2.14-2.76l-4.36-5.37ZM187.11,347.52c1.43,1.45,3.51,2.14,5.54,2.14,3.92,0,7.55-2.2,7.55-6.44s-3.22-5.69-6.62-7.13c-1.82-.82-4.24-1.48-4.24-3.83,0-1.69,1.59-2.58,3.15-2.58,2.77,0,4.59,2.1,5.16,4.52h1.37l-.19-5.65h-1.37l-.41,1.22c-1.27-1.16-3.06-1.54-4.78-1.54-3.69,0-6.69,2.07-6.69,5.94,0,3.46,2.33,5.03,5.19,6.25,2.23.94,5.29,1.73,5.29,4.65,0,1.95-1.78,3.14-3.63,3.14-3.54,0-5-2.64-5.89-5.5h-1.27v6.54h1.4l.44-1.73ZM277.59,349.62c3.81,0,6.78-3.84,6.78-7.66,0-2.77-1.74-4.89-4.52-4.89-3.92,0-6.78,3.73-6.78,7.69,0,2.83,1.74,4.86,4.52,4.86ZM208.36,344.23c0,2.58.1,4.05-2.99,3.96v1.13c1.75-.03,3.5-.09,5.26-.12,1.88.03,3.76.09,5.61.12v-1.13c-3.03.06-3-1.26-3-3.83v-10.68c0-2.58-.09-4.05,3-4.02v-1.13c-1.85.03-3.76.09-5.64.13-1.75-.03-3.47-.09-5.22-.13v1.13c3.09-.06,2.99,1.41,2.99,4.02v10.56ZM241.35,328.52h-20.51l-.19,5.97h1.37c.51-2.73,1.69-4.65,4.81-4.4,2.01.16,1.91.03,1.91,2.3v11.84c0,2.8.03,4.05-3.22,3.96v1.13c1.88-.03,3.76-.09,5.64-.12,1.88.03,3.76.09,5.64.12v-1.13c-3.25.09-3.19-1.16-3.19-3.96v-11.84c-.06-2.48-.16-2.3,1.91-2.3,2.77,0,4.33,1.76,4.65,4.4h1.37l-.19-5.97ZM258.05,340.83l5.38-8.98c.67-1.16,1.24-2.08,2.67-2.2v-1.13c-1.24.03-2.51.09-3.76.13-1.08-.03-2.13-.09-3.22-.13v1.13c1.11,0,2.32.22,2.32,1.57,0,.82-.8,2.26-1.21,3.01l-3.06,5.06-3.19-5.69c-.32-.56-1.15-1.98-1.15-2.61,0-1.19,1.53-1.29,2.39-1.35v-1.13c-1.81.03-3.63.09-5.45.13-1.59-.03-3.22-.09-4.81-.13v1.13c1.66.38,1.82.72,2.68,2.14l5.51,9.68v2.76c-.06,2.7.06,3.99-3.09,3.96v1.13c1.69-.03,3.41-.09,5.1-.12,2.01.03,3.98.09,5.99.12v-1.13c-3.19.09-3.12-1.26-3.12-3.96v-3.39ZM336.29,345.41c-.9,1.13-2.12,2.66-3.65,2.66-1.17,0-1.74-1.02-1.74-2.12,0-.54.08-1.08.16-1.61,2.37-.62,7.19-1.7,7.19-4.89,0-1.78-1.91-2.37-3.32-2.37-4.22,0-7.22,4.13-7.22,8.34,0,2.6,1.44,4.21,3.92,4.21,2.34,0,4.08-1.75,5.34-3.68l-.68-.54ZM279.96,338.03c.98,0,1.39.88,1.39,1.78,0,2.01-1.39,8.85-3.9,8.85-1.03,0-1.36-1.07-1.36-1.95,0-1.53.57-3.68,1.06-5.09.41-1.3,1.2-3.59,2.8-3.59ZM292.13,338.62h2.59l.27-1.13h-2.59c.3-1.5.57-3.05,1.09-4.52.22-.59.54-1.5,1.31-1.5,1.09,0,.73,1.95,2.29,1.95.68,0,1.25-.68,1.25-1.36,0-1.41-1.63-1.73-2.7-1.73-3.87,0-5.44,3.93-6.24,7.15h-2.26l-.3,1.13h2.29l-2.42,10.8c-.38,1.64-.79,3.28-1.17,4.92-.14.51-.27,1.41-.98,1.41-.46,0-.55-.51-.57-.88-.05-.65-.44-1.24-1.17-1.24s-1.28.65-1.28,1.36c0,1.33,1.25,1.89,2.37,1.89,3.11,0,4.41-2.88,5.23-5.54l3-12.72ZM310.09,333.19h-2.78l-1.39,4.44h-2.18l-.24,1.13h2.15l-1.14,4.41c-.3,1.19-.82,3.02-.82,4.24s.98,2.21,2.21,2.21c2.1,0,3.57-2.46,4.41-4.21l-.52-.28-.22.4c-.38.68-1.31,2.4-2.23,2.4-.52,0-.63-.56-.63-.99,0-.79.46-2.49.68-3.28l1.25-4.89h2.59l.3-1.13h-2.59l1.14-4.44ZM311.77,349.25h2.89l1.17-3.79c.46-1.47,1.06-3.11,1.85-4.41.49-.79,1.55-2.15,2.56-2.15.57,0,.87.37.87.93s-.33,1.61-.49,2.15l-.84,2.83c-.27.85-.6,1.92-.6,2.8,0,1.13.93,2.01,1.99,2.01,2.1,0,3.7-2.49,4.44-4.33l-.52-.17c-.41.76-1.25,2.63-2.21,2.63-.33,0-.55-.42-.55-.76,0-.37.35-1.5.49-1.9l.87-2.86c.27-.82.52-1.9.52-2.74,0-1.44-.93-2.43-2.32-2.43-2.18,0-3.89,1.89-4.76,3.76l2.61-10.49-5.64.37-.22.85c.65,0,2.07,0,2.07.96,0,.73-.62,2.94-.79,3.65l-3.4,13.09ZM331.31,343.43c.38-1.55,1.39-5.51,3.35-5.51.65,0,1.01.51,1.01,1.16,0,2.23-2.53,3.79-4.36,4.35Z"/>
  <path class="st0" d="M281.59,184.79c-.78,5.06-2.35,9.87-5.42,15.64-10.97,20.67-31.57,32.9-56.08,47-13.15,7.57-22.96,13.37-36.99,22.7l-2.17.28c-14.45-9.61-24.26-15.41-37.41-22.98-24.51-14.1-45.1-26.32-56.08-47-3.06-5.77-4.64-10.58-5.42-15.64-.75-4.88-.77-9.99-.77-16.59V39.71h201.1v128.49c0,6.6-.01,11.71-.77,16.59"/>
  <path class="st0" d="M67.6,248.49v-2.61c0-1.36.98-3.92,2.21-5.63-1.15-2.16-1.76-4.67-1.76-6.76,0-.18,0-.64.07-1.68.24-3.66,1.71-7.86,6.02-11.33.19-.15.38-.34.59-.55l.81-.81,2.54-2.41,1.26,3.24c.62,1.59,1.2,3.21,1.7,4.79.35,1.1,2.3,2.27,4.13,2.83,3.21.99,6.43,1.4,9.61,2.66,2.73,1.08,7.53,3.34,9.2,6.46.31.59.67,1.51.83,2.05.15.52.46,1.89.46,2.44v9.82c10.5,5.02,20.97,8.89,31.52,11.59,10.79,2.76,21.85,4.57,32.8,5.31l4.6.26h7.63s7.63,0,7.63,0l4.6-.26c10.94-.74,22-2.55,32.79-5.31,10.55-2.71,21.02-6.57,31.52-11.59v-9.82c0-.56.31-1.93.46-2.44.15-.54.52-1.46.83-2.05,1.67-3.12,6.47-5.38,9.2-6.46,3.18-1.26,6.4-1.67,9.61-2.66,1.83-.56,3.78-1.73,4.13-2.83.5-1.57,1.08-3.2,1.7-4.79l1.26-3.24,2.54,2.41.81.81c.21.21.4.4.59.55,4.31,3.47,5.77,7.67,6.01,11.33.07,1.04.07,1.5.07,1.68,0,2.09-.61,4.6-1.76,6.76,1.23,1.72,2.21,4.27,2.21,5.63v2.61c0,.31-.07.64-.14.88-.73,5.49-7.14,9.82-12.37,11.21v6.57c0,1.88-.94,6.18-3.89,7.85-9.28,5.27-19.09,9.49-28.51,13.01-2.32.86-4.72,1.73-7.04,2.47-13.77,4.37-27.86,7.12-41.62,8.27l-9.57.51-11.06.25-11.06-.25-9.57-.51c-13.77-1.14-27.85-3.9-41.62-8.27-2.32-.74-4.72-1.61-7.04-2.47-9.42-3.51-19.23-7.73-28.51-13.01-2.96-1.67-3.9-5.97-3.89-7.85v-6.57c-5.21-1.39-11.64-5.69-12.32-11.01-.1-.35-.2-.73-.2-1.08"/>
  <rect class="st4" x="106.08" y="65.73" width="150.9" height="55.12"/>
  <rect class="st3" x="106.08" y="65.73" width="150.9" height="55.12"/>
  <path class="st2" d="M83.33,42.81v126.13c0,12.91,0,19.99,5.91,31.13,10.6,19.97,30.53,31.89,55.17,46.06,13.2,7.59,23.04,13.41,37.11,22.78,14.08-9.36,23.92-15.18,37.11-22.78,24.63-14.17,44.57-26.09,55.17-46.06,5.91-11.14,5.91-18.22,5.91-31.13V42.81H83.33M106.07,120.86v-55.12h150.9v55.12H106.07Z"/>
  <path class="st1" d="M129.82,202.79v-3.23h2.18v-2.14s2.18,0,2.18,0v-2.15h2.19l.37-26.9h-1.09v-1.43h-1.09v-3.23h1.82s0-9.32,0-9.32h-2.91v-2.65l-2.55-1.43v-3.42l50.92-12.45,50.88,12.45v3.42l-2.55,1.43v2.65h-2.91v9.33h1.82s0,3.23,0,3.23h-1.09v1.43h-1.09l.37,26.9h2.18v2.15h2.18s0,2.15,0,2.15h2.18v3.22h-103.97M160.37,195.26h9.46l.36-27.26h-1.46v-1.43h-1.46v-1.43h-4.37v1.43h-1.45v1.43h-1.46l.37,27.26ZM184.01,165.13v1.43h1.46v1.43h1.46l-.37,27.26h-9.45l-.36-27.26h1.45v-1.43h1.45v-1.43h4.36ZM154.59,149.34l27.24-6.52,27.23,6.52h-54.47ZM181.83,141.09l-33.83,8.25h-6.01s39.83-9.73,39.85-9.73c.02,0,39.85,9.73,39.85,9.73h-6.01l-33.83-8.25ZM181.83,137.78l-47.62,11.73c-.58.15-1.18.05-1.32-.53s.21-.91.79-1.05l48.15-11.85,48.15,11.85c.59.15.94.47.8,1.05-.15.58-.74.68-1.32.53l-47.62-11.73ZM196.38,154.36h4.36c.4,0,.73.32.73.72v2.87c0,.4-.33.72-.73.72h-4.36c-.4,0-.73-.32-.73-.72v-2.87c0-.4.33-.72.73-.72ZM213.1,154.36h4.36c.4,0,.73.32.73.72v2.87c0,.4-.33.72-.73.72h-4.36c-.4,0-.73-.32-.73-.72v-2.87c0-.4.32-.72.73-.72ZM188.74,154.36c.4,0,.73.32.73.72v2.87c0,.4-.33.72-.73.72s-.73-.32-.73-.72v-2.87c0-.4.33-.72.73-.72ZM191.65,154.36c.4,0,.73.32.73.72v2.87c0,.4-.33.72-.73.72s-.73-.32-.73-.72v-2.87c0-.4.33-.72.73-.72ZM205.47,154.36c.4,0,.73.32.73.72v2.87c0,.4-.33.72-.73.72s-.73-.32-.73-.72v-2.87c0-.4.33-.72.73-.72ZM208.38,154.36c.4,0,.73.32.73.72v2.87c0,.4-.33.72-.73.72s-.73-.32-.73-.72v-2.87c0-.4.33-.72.73-.72ZM222.2,154.36c.4,0,.73.32.73.72v2.87c0,.4-.33.72-.73.72s-.73-.32-.73-.72v-2.87c0-.4.33-.72.73-.72ZM225.11,154.36c.4,0,.73.32.73.72v2.87c0,.4-.32.72-.73.72s-.73-.32-.73-.72v-2.87c0-.4.33-.72.73-.72ZM188.74,167.99c.4,0,.73.32.73.72v25.83c0,.4-.33.72-.73.72s-.73-.32-.73-.72v-25.83c0-.4.33-.72.73-.72ZM191.65,167.99c.4,0,.73.32.73.72v25.83c0,.4-.33.72-.73.72s-.73-.32-.73-.72v-25.83c0-.4.33-.72.73-.72ZM187.28,165.13h5.82c.4,0,.73.32.73.72s-.33.72-.73.72h-5.82c-.4,0-.73-.32-.73-.72s.33-.72.73-.72ZM204.01,165.13h5.82c.4,0,.73.32.73.72s-.33.72-.73.72h-5.82c-.4,0-.73-.32-.73-.72s.32-.72.73-.72ZM205.47,167.99c.4,0,.73.32.73.72v25.83c0,.4-.33.72-.73.72s-.73-.32-.73-.72v-25.83c0-.4.33-.72.73-.72ZM208.38,167.99c.4,0,.73.32.73.72v25.83c0,.4-.33.72-.73.72s-.73-.32-.73-.72v-25.83c0-.4.33-.72.73-.72ZM220.74,165.13h5.82c.4,0,.73.32.73.72s-.33.72-.73.72h-5.82c-.4,0-.73-.32-.73-.72s.32-.72.73-.72ZM222.2,167.99c.4,0,.73.32.73.72v25.83c0,.4-.33.72-.73.72s-.73-.32-.73-.72v-25.83c0-.4.33-.72.73-.72ZM225.11,167.99c.4,0,.73.32.73.72v25.83c0,.4-.32.72-.73.72s-.73-.32-.73-.72v-25.83c0-.4.33-.72.73-.72ZM211.65,167.99v-1.43h1.46v-1.43h4.36v1.43h1.46v1.43h1.46l-.36,27.26h-9.46l-.37-27.26h1.46ZM203.29,195.26h-9.46l-.36-27.26h1.45v-1.43h1.45v-1.43h4.37v1.43h1.45v1.43h1.45l-.36,27.26ZM179.65,154.36h4.36c.4,0,.73.32.73.72v2.87c0,.4-.33.72-.73.72h-4.36c-.4,0-.73-.32-.73-.72v-2.87c0-.4.33-.72.73-.72ZM162.92,154.36h4.36c.4,0,.73.32.73.72v2.87c0,.4-.33.72-.73.72h-4.36c-.4,0-.73-.32-.73-.72v-2.87c0-.4.33-.72.73-.72ZM146.19,154.36h4.36c.4,0,.73.32.73.72v2.87c0,.4-.33.72-.73.72h-4.36c-.4,0-.73-.32-.73-.72v-2.87c0-.4.33-.72.73-.72ZM174.92,154.36c.4,0,.73.32.73.72v2.87c0,.4-.33.72-.73.72s-.73-.32-.73-.72v-2.87c0-.4.33-.72.73-.72ZM172.01,154.36c.4,0,.73.32.73.72v2.87c0,.4-.33.72-.73.72s-.73-.32-.73-.72v-2.87c0-.4.32-.72.73-.72ZM158.19,154.36c.4,0,.73.32.73.72v2.87c0,.4-.33.72-.73.72s-.73-.32-.73-.72v-2.87c0-.4.32-.72.73-.72ZM155.28,154.36c.4,0,.73.32.73.72v2.87c0,.4-.33.72-.73.72s-.73-.32-.73-.72v-2.87c0-.4.33-.72.73-.72ZM141.46,154.36c.4,0,.73.32.73.72v2.87c0,.4-.33.72-.73.72s-.73-.32-.73-.72v-2.87c0-.4.33-.72.73-.72ZM138.55,154.36c.4,0,.73.32.73.72v2.87c0,.4-.33.72-.73.72s-.73-.32-.73-.72v-2.87c0-.4.33-.72.73-.72ZM136.01,150.78h91.65c.6,0,1.09.48,1.09,1.08s-.49,1.08-1.09,1.08h-91.65c-.6,0-1.09-.48-1.09-1.08s.49-1.08,1.09-1.08ZM137.83,163.69v-3.59h88.01v3.59h-88.01ZM174.92,167.99c.4,0,.73.32.73.72v25.83c0,.4-.33.72-.73.72s-.73-.32-.73-.72v-25.83c0-.4.33-.72.73-.72ZM172.01,167.99c.4,0,.73.32.73.72v25.83c0,.4-.33.72-.73.72s-.73-.32-.73-.72v-25.83c0-.4.32-.72.73-.72ZM170.55,165.13h5.82c.4,0,.73.32.73.72s-.33.72-.73.72h-5.82c-.4,0-.73-.32-.73-.72s.33-.72.73-.72ZM153.83,165.13h5.82c.4,0,.73.32.73.72s-.33.72-.73.72h-5.82c-.4,0-.73-.32-.73-.72s.33-.72.73-.72ZM158.19,167.99c.4,0,.73.32.73.72v25.83c0,.4-.33.72-.73.72s-.73-.32-.73-.72v-25.83c0-.4.32-.72.73-.72ZM155.28,167.99c.4,0,.73.32.73.72v25.83c0,.4-.33.72-.73.72s-.73-.32-.73-.72v-25.83c0-.4.33-.72.73-.72ZM137.1,165.13h5.82c.4,0,.73.32.73.72s-.33.72-.73.72h-5.82c-.4,0-.73-.32-.73-.72s.33-.72.73-.72ZM141.46,167.99c.4,0,.73.32.73.72v25.83c0,.4-.33.72-.73.72s-.73-.32-.73-.72v-25.83c0-.4.33-.72.73-.72ZM138.55,167.99c.4,0,.73.32.73.72v25.83c0,.4-.33.72-.73.72s-.73-.32-.73-.72v-25.83c0-.4.33-.72.73-.72ZM135.28,197.4v-1.08h93.1v1.08h-93.1ZM133.1,199.56v-1.07h97.47v1.07h-97.47ZM130.92,201.71v-1.07h101.83v1.07h-101.83ZM152.01,167.99v-1.43h-1.45v-1.43h-4.37v1.43h-1.45v1.43h-1.45l.36,27.26h9.46l.36-27.26h-1.45Z"/>
  <path class="st1" d="M183.51,61.68c6.75-10.21,15.51-5.37,15.51-5.37-2.37,1.67-7.67.79-9.5,3.3,3.1-1.68,7.43.45,11.83-1.9-.17.04,2.41.78,2.41.78-1.66,1.27-3.43,2.13-5.95,3.04-5.3,1.9-10.47-1.98-14.3.15M185.05,47.11c8.3,0,11.81,4.05,11.81,4.05l-3.45.05c-1.35-1.14-4.14-1.8-5.13-2.38.8,1.53,2.7,1.75,3.44,2.92.01,0-2.32.88-2.32.88-1.67-.69-3.4-3.66-4.34-5.52ZM183.61,48.57c-11.8-4.06-16.37,1.22-16.37,1.22l3.34.73c1.53-.89,4.4-1.06,5.47-1.46-1.06,1.36-2.97,1.26-3.9,2.28-.02,0,2.13,1.26,2.13,1.26,2.87-.7,5.02-3.5,9.32-4.04ZM166.64,47.56c-1.7,0-4.31-.76-8.36-.36-4.04.4-7.64,5.01-7.64,5.01l.85.25c2.82-2.27,8.19-2.74,9.82-3.43-1.71,2.04-7.01,3-7.74,4.16,2.85,3.14,10.75-2.6,13.07-5.63ZM158.79,61.37c-5.63-6.57-12.77-7.09-12.77-7.09l-2,.33c.88,1.43,6.78,3.73,8.22,4.75-1.99.33-8.04-1.83-10.26-4.05-.04,0-2.29.73-2.29.73,2.93,3.47,7.37,5.25,11.03,5.12,3.11-.11,4.38,1.2,8.08.22ZM149.9,47.41c-3.59-.95-10.63-2.56-18.55,4.97,0,0,2.26-.36,3.74.11.66-.69,6.52-4.06,10.18-3.92-3.04,1.21-6.7,3.33-7.59,4.21-.04,0,3.22.44,4.25.18.66-.16,4.67-1.13,7.97-5.55ZM140.23,61.04c-3.74-4.02-8.7-5.59-11.26-5.63-2.48-.04-4.51.58-4.51.58,1.96,2.05,5.78,1.79,9.56,3.18-4.45-.44-8.59.25-12.15-2.81-1.67.51-2.85.51-2.82.55,7,6.32,15.89,3.28,21.19,4.13ZM118.9,53.55c7,1.5,9.37-4.83,11.63-5.81-10.93-1.38-17.15,3.26-17.63,4.57,0,0,1.92.04,2.89.62,3.56-1.47,5.11-3.61,9.82-3.4-3.5.76-6.7,4.01-6.7,4.02h0ZM120.9,61.37c-6.19-2.89-10.55-8.66-18.74-6.61,5.26,1.38,7.08,4.12,12.41,5.22-4.25.96-8.97-3.25-13.63-3.11,1.37,1.58,4.92,6.03,11.56,5.05,3.26-.48,5.07-.62,8.4-.54ZM113.35,48.57c-7.3-3.54-18.44-.64-18.33.3-.04,0,.3.18.52.55,1.48-1.03,10.44-.44,12.52-.81-1.48,1.43-11.3,1.32-11.15,2.49,6.31,2.16,13.42-1.2,16.45-2.52ZM89.43,47.86c-3.68,6.51-2.96,12.83-.2,15.68-1.25-6.21-.33-8.84.23-10.45-.27,2.08.04,7.38.89,9.02,2.56-4.02.55-10.95-.92-14.25ZM94.36,52.07c.26,3.8-.09,6.5-.94,9.56-.85,3.07-2.49,6.03-.83,9.08.79-3.8,4.66-4.85,3.73-11.3,3.27,6.95-2.53,9.21-1.6,14.48,9.34-11.2,1.65-18.43-.36-21.82ZM101.89,68.95c-2.11,4.85-7.33,7.84-5.61,12.85,1.6-.18,3.32-5.33,4.27-7.36-.09,2.99-1.28,7.36-3.94,10.17.14,1.26-.05,2.58-.05,2.58,3.32-1.78,7.63-9.26,5.33-18.25ZM93.48,87.96c2.17-11.49-3.87-13.1-5.52-18.45-1.78,3.96-2.55,16.1,3.71,19.41-3.36-6.17-1.18-9.72-2.43-12.99,2.53,2.06.83,7.91,4.24,12.03ZM102.7,85.96c-4.13,3.73-7.78,10.71-5.24,15.65,2.96-4.14.26-5.65,3.25-8.87-1.71,3.74.99,6.53-2.66,11.36-.83,1.1-.79,4.67-.79,4.67,0,0,5.01-5.07,5.54-10.45.53-5.38-1.42-7.07-.09-12.35ZM87.82,89.74c1.6,3.88-2.53,8.71,5.39,16.48.52-3.61-4.12-7.54-3.13-10.59.99,4.3,4.56,4.92,5.13,10.59.94-4.92-1.81-12.46-7.39-16.48ZM86.94,101.97c-1.37,4.96-.43,14.46,4.22,18.49.82-5.34-3.18-7.5-2.64-11.66.8,3.32,3.66,4.18,4.37,8.16,1.13-1.83,1.84-4.23.35-6.3-1.18-1.64-4.24-3.37-6.29-8.7ZM101.33,110.17c-.65,1.62-6.15,6.06-6.63,10.93-.39,3.89,1.78,7.47,1.78,7.47-1.48-6.34,1.83-7.94,3.11-11.87.57,2.72-2.99,5.94-1.59,10.18,3.26-3.08,5.45-8.03,3.33-16.71ZM87.36,120.26c-.61,7.26.48,13.67,4.67,17.9.61-5.41-3.71-7.55-2.24-12.28.38,3.74,4.46,8.57,4.25,11.05,3.91-5.76-4.4-13.39-6.68-16.67ZM93.99,148.07c-.51,4.69-8.4,11.88-4.07,19.74-.68-7.86,2.25-9.36,3.37-11.86,1.02,3.49-3.44,5.1-1.39,14.11.08-6.81,7.26-14.8,2.1-21.99ZM100.72,130.82c-1.22,3.37-6.08,7.37-6.27,10.26-.1,1.6.2,2.99,1.62,4.69.51-4.79,3.2-4.28,3.81-9.08,1.41,4.74-2.08,6.21-2.5,10.57,0,0,1.12,2,1.72,4.1,5.67-6.39,3.34-16.28,1.62-20.55ZM87.55,136.35c-1.91,7.65-1.15,14.25.78,18.06.49-1.9,1.24-2.8,1.24-2.8-.5-1.21-1.71-8.14-1.02-9.45.44,2.62.93,4.79,1.95,8.26,3.7-6.69-1.9-11.59-2.95-14.08ZM101.86,154.52c-2.3,7.02-9.13,9.08-7.56,20.22,1.23-5.01,5.5-7.26,5.74-12.45,1.04,5.94-3.99,9.55-3.87,15.3,5.63-4.62,7.95-13.42,5.69-23.07ZM88.19,169.05c-1.68,6.35-1.11,16.22,3.87,20.3.52-2.25-3.46-10.53-2.09-13.34-.66,3.46,4.32,9.69,3.49,10.91,3.96-6.46-4.16-13.38-5.28-17.86ZM102.39,174.11c-1.36,7.52-7.77,8.69-5.81,17.6,1.13-4.89,3.98-5.45,4.45-8.87.85,3.65-3.23,7.07-2.82,11.41,1.63-.37,7.52-9.26,4.18-20.15ZM105.39,190.62c-2.74,8.12-2.17,14.81,1.24,16.17,1.99-3.18-1.57-7.86-.1-10.48-.23,2.47,4.14,8.23,2.24,10.9.19-.05,1.66.33,3,.93,2.79-8.89-5.23-12.68-6.38-17.52ZM91.3,191.55c-.67,6.46,6.31,13.76,11.15,14.6,0,0-.66-1.17-.85-2.76-1.99-.93-4.84-2.99-6.22-6.08,1.61,1.78,4.03,3.65,6.03,4.12,0,0-.14-1.69.05-2.62-1.47-2.9-7.64-2.76-10.16-7.26ZM100.26,208.03c2.38,6.17,10.59,8.89,16.02,9.1,0,0-.38-.8-1.11-2.23-2.38-.47-7.55-1.59-9.92-4.03,2.13,1.13,6.83,2.44,9.26,2.25-3.37-4.54-10.11-2.81-14.25-5.1ZM115.89,204.77c.49,11.98,4.85,14.32,10.82,16.44-.99-4.6-5.92-5.39-7.11-10.45,2.28,4.59,6.98,4.77,8.82,9.51-.28-10.07-9.77-11.34-12.53-15.5ZM114.95,219.61c2.28,5.01,10.21,11.94,14.38,9.91-2.13-3.27-5.09-2.19-8.68-5.98,4.27,2.9,8.25,1.52,10.54,5.57,1.04-.49,2.06-.78,2.06-.78-3.62-7.98-12.78-4.99-18.29-8.72ZM131.7,216.47c.47,5.8,1.19,10.77,6.97,11.18-.99-3.83-3.72-3.86-4.29-6.48,1.57,2.62,4.39,1.71,6.15,6.58,1.15.09,2.28.47,2.28.47-1.55-7.96-8.28-7.62-11.11-11.75ZM129.9,231.81c5.41,3.86,13.86,4.51,18.26,3.22-6.49-1.38-7.68-2.69-12.71-2.55,4.32-1.4,8.64.84,13.24.94-7.11-7.35-15.47-1.69-18.8-1.61ZM148.41,227.71c1.9,6.32,5.65,11.51,12.29,14.65-4.08-5.17-4.08-7.07-7.5-9.92,5.17,2.57,6.03,6.23,9.9,9.27-2.07-11.48-12.1-11.95-14.7-14ZM139.76,238.25c4.67,4.44,11.46,7.39,17.72,4.67-7.02-.89-8.31-3.09-12.82-3.18,2.99-.94,7.22.79,9.14.76-1.07-.71-1.37-1.61-1.37-1.61-4.26-2.19-9.81-.97-12.68-.64ZM164.59,237.54c.66,5.43,4.27,11.42,12.34,15.54-.62-3.56-6.07-6.32-7.88-10.81,2.8,3.56,9.07,5.8,10.35,12.69,1.99-12.5-11.58-14.23-14.81-17.41ZM154.79,246.94c7.42.81,9.84,8.79,24.63,13.94-1.06-2.22-2.05-4.13-3.98-5.79-10.17-3.07-12.66-7.36-14.85-7.88,3.22-.22,5.13,2.65,7.74,2.97-4.5-6.88-11.39-4.59-13.54-3.24ZM196.17,47.56c1.7,0,4.31-.76,8.36-.36,4.04.4,7.64,5.01,7.64,5.01l-.85.25c-2.81-2.27-8.19-2.74-9.82-3.43,1.71,2.04,7.01,3,7.74,4.16-2.85,3.14-10.75-2.6-13.07-5.63ZM204.02,61.37c5.63-6.57,12.77-7.09,12.77-7.09l2,.33c-.89,1.43-6.79,3.73-8.23,4.75,1.99.33,8.04-1.83,10.27-4.05.04,0,2.29.73,2.29.73-2.93,3.47-7.37,5.25-11.03,5.12-3.11-.11-4.38,1.2-8.08.22ZM212.91,47.41c3.59-.95,10.64-2.56,18.56,4.97,0,0-2.26-.36-3.74.11-.67-.69-6.52-4.06-10.18-3.92,3.04,1.21,6.7,3.33,7.59,4.21.04,0-3.22.44-4.25.18-.66-.16-4.67-1.13-7.97-5.55ZM222.58,61.04c3.74-4.02,8.7-5.59,11.26-5.63,2.49-.04,4.51.58,4.51.58-1.95,2.05-5.78,1.79-9.55,3.18,4.45-.44,8.59.25,12.15-2.81,1.67.51,2.85.51,2.81.55-7,6.32-15.89,3.28-21.18,4.13ZM243.91,53.55c-7,1.5-9.37-4.83-11.63-5.81,10.93-1.38,17.15,3.26,17.63,4.57,0,0-1.92.04-2.89.62-3.55-1.47-5.11-3.61-9.81-3.4,3.5.76,6.7,4.01,6.7,4.02h0ZM241.91,61.37c6.19-2.89,10.55-8.66,18.74-6.61-5.26,1.38-7.08,4.12-12.41,5.22,4.26.96,8.96-3.25,13.62-3.11-1.36,1.58-4.92,6.03-11.56,5.05-3.26-.48-5.07-.62-8.4-.54ZM249.47,48.57c7.3-3.54,18.45-.64,18.33.3.04,0-.3.18-.52.55-1.49-1.03-10.44-.44-12.52-.81,1.48,1.43,11.3,1.32,11.15,2.49-6.3,2.16-13.41-1.2-16.45-2.52ZM273.78,47.86c3.67,6.51,2.96,12.83.19,15.68,1.26-6.21.33-8.84-.23-10.45.27,2.08-.04,7.38-.89,9.02-2.56-4.02-.55-10.95.92-14.25ZM268.85,52.07c-.27,3.8.09,6.5.94,9.56.85,3.07,2.49,6.03.83,9.08-.79-3.8-4.66-4.85-3.73-11.3-3.27,6.95,2.53,9.21,1.6,14.48-9.34-11.2-1.64-18.43.36-21.82ZM261.32,68.95c2.11,4.85,7.33,7.84,5.61,12.85-1.6-.18-3.32-5.33-4.26-7.36.09,2.99,1.27,7.36,3.94,10.17-.14,1.26.05,2.58.05,2.58-3.32-1.78-7.63-9.26-5.33-18.25ZM269.74,87.96c-2.17-11.49,3.87-13.1,5.52-18.45,1.78,3.96,2.55,16.1-3.71,19.41,3.36-6.17,1.18-9.72,2.43-12.99-2.53,2.06-.83,7.91-4.24,12.03ZM260.51,85.96c4.13,3.73,7.78,10.71,5.24,15.65-2.96-4.14-.26-5.65-3.25-8.87,1.71,3.74-.99,6.53,2.66,11.36.83,1.1.79,4.67.79,4.67,0,0-5.01-5.07-5.54-10.45-.53-5.38,1.42-7.07.09-12.35ZM275.4,89.74c-1.6,3.88,2.53,8.71-5.39,16.48-.52-3.61,4.13-7.54,3.13-10.59-.99,4.3-4.56,4.92-5.13,10.59-.95-4.92,1.81-12.46,7.39-16.48ZM276.27,101.97c1.37,4.96.43,14.46-4.22,18.49-.82-5.34,3.17-7.5,2.64-11.66-.81,3.32-3.66,4.18-4.37,8.16-1.14-1.83-1.84-4.23-.35-6.3,1.18-1.64,4.24-3.37,6.29-8.7ZM261.88,110.17c.65,1.62,6.15,6.06,6.63,10.93.39,3.89-1.78,7.47-1.78,7.47,1.48-6.34-1.84-7.94-3.11-11.87-.57,2.72,2.99,5.94,1.59,10.18-3.26-3.08-5.45-8.03-3.33-16.71ZM275.85,120.26c.62,7.26-.48,13.67-4.67,17.9-.61-5.41,3.71-7.55,2.24-12.28-.38,3.74-4.46,8.57-4.25,11.05-3.91-5.76,4.39-13.39,6.68-16.67ZM269.22,148.07c.51,4.69,8.4,11.88,4.07,19.74.68-7.86-2.25-9.36-3.36-11.86-1.02,3.49,3.44,5.1,1.39,14.11-.08-6.81-7.26-14.8-2.1-21.99ZM262.49,130.82c1.22,3.37,6.08,7.37,6.27,10.26.11,1.6-.2,2.99-1.62,4.69-.5-4.79-3.2-4.28-3.81-9.08-1.41,4.74,2.08,6.21,2.49,10.57,0,0-1.12,2-1.72,4.1-5.67-6.39-3.34-16.28-1.62-20.55ZM275.66,136.35c1.9,7.65,1.15,14.25-.78,18.06-.49-1.9-1.24-2.8-1.24-2.8.5-1.21,1.71-8.14,1.02-9.45-.44,2.62-.93,4.79-1.95,8.26-3.7-6.69,1.9-11.59,2.95-14.08ZM261.35,154.52c2.3,7.02,9.13,9.08,7.57,20.22-1.23-5.01-5.5-7.26-5.74-12.45-1.05,5.94,3.99,9.55,3.87,15.3-5.63-4.62-7.95-13.42-5.7-23.07ZM275.02,169.05c1.68,6.35,1.11,16.22-3.87,20.3-.52-2.25,3.46-10.53,2.09-13.34.67,3.46-4.32,9.69-3.49,10.91-3.96-6.46,4.16-13.38,5.28-17.86ZM260.82,174.11c1.36,7.52,7.76,8.69,5.81,17.6-1.13-4.89-3.98-5.45-4.45-8.87-.85,3.65,3.23,7.07,2.82,11.41-1.63-.37-7.52-9.26-4.18-20.15ZM257.82,190.62c2.74,8.12,2.17,14.81-1.24,16.17-1.99-3.18,1.57-7.86.11-10.48.23,2.47-4.14,8.23-2.24,10.9-.19-.05-1.66.33-3,.93-2.79-8.89,5.23-12.68,6.38-17.52ZM271.91,191.55c.66,6.46-6.31,13.76-11.15,14.6,0,0,.66-1.17.85-2.76,1.99-.93,4.84-2.99,6.22-6.08-1.61,1.78-4.04,3.65-6.03,4.12,0,0,.14-1.69-.05-2.62,1.47-2.9,7.64-2.76,10.16-7.26ZM262.95,208.03c-2.38,6.17-10.59,8.89-16.02,9.1,0,0,.38-.8,1.11-2.23,2.38-.47,7.55-1.59,9.92-4.03-2.13,1.13-6.83,2.44-9.25,2.25,3.37-4.54,10.11-2.81,14.25-5.1ZM247.32,204.77c-.48,11.98-4.85,14.32-10.82,16.44.99-4.6,5.92-5.39,7.11-10.45-2.28,4.59-6.98,4.77-8.82,9.51.27-10.07,9.77-11.34,12.53-15.5ZM248.26,219.61c-2.28,5.01-10.2,11.94-14.38,9.91,2.14-3.27,5.1-2.19,8.68-5.98-4.27,2.9-8.25,1.52-10.53,5.57-1.04-.49-2.06-.78-2.06-.78,3.62-7.98,12.78-4.99,18.28-8.72ZM231.51,216.47c-.47,5.8-1.19,10.77-6.97,11.18.99-3.83,3.72-3.86,4.29-6.48-1.57,2.62-4.4,1.71-6.15,6.58-1.15.09-2.28.47-2.28.47,1.55-7.96,8.28-7.62,11.1-11.75ZM233.31,231.81c-5.41,3.86-13.86,4.51-18.26,3.22,6.49-1.38,7.68-2.69,12.71-2.55-4.32-1.4-8.64.84-13.24.94,7.11-7.35,15.47-1.69,18.79-1.61ZM214.8,227.71c-1.9,6.32-5.65,11.51-12.29,14.65,4.08-5.17,4.08-7.07,7.5-9.92-5.17,2.57-6.03,6.23-9.9,9.27,2.07-11.48,12.1-11.95,14.7-14ZM223.36,238.25c-4.67,4.44-11.46,7.39-17.72,4.67,7.02-.89,8.3-3.09,12.81-3.18-2.99-.94-7.21.79-9.14.76,1.07-.71,1.37-1.61,1.37-1.61,4.26-2.19,9.82-.97,12.68-.64ZM198.62,237.54c-.66,5.43-4.27,11.42-12.34,15.54.62-3.56,6.08-6.32,7.88-10.81-2.8,3.56-9.06,5.8-10.35,12.69-1.99-12.5,11.58-14.23,14.81-17.41ZM208.42,246.94c-7.42.81-9.83,8.79-24.63,13.94,1.06-2.22,2.05-4.13,3.98-5.79,10.17-3.07,12.66-7.36,14.85-7.88-3.22-.22-5.13,2.65-7.74,2.97,4.5-6.88,11.39-4.59,13.54-3.24ZM178.17,61.68c-6.75-10.21-15.51-5.37-15.51-5.37,2.37,1.67,7.66.79,9.5,3.3-3.1-1.68-7.43.45-11.83-1.9.17.04-2.41.78-2.41.78,1.66,1.27,3.42,2.13,5.95,3.04,5.3,1.9,10.47-1.98,14.3.15ZM187.24,54.82c-8.29-4.32-11.41,0-11.41,0l1.82,1.8c2.44-.29,3.91-2.86,6.46-1.62-1.65.3-3.45,2.32-5.79,2.43-.01,0,1.53,2.63,1.53,2.63,2.67.41,4.74-4.38,7.39-5.24Z"/>
  <path class="st2" d="M189.5,88.08s.52-2.4,1.3-2.97c1.07.76,2,2.47,2,2.47,0,0-.92.85-1.44,2.17-1.13-1.25-1.86-1.67-1.86-1.67M182.12,89.7c1.25.79,1.88,2.63,1.88,2.63,0,0-1.07,1.09-1.88,2.54-.82-1.45-1.88-2.54-1.88-2.54,0,0,.63-1.83,1.88-2.63ZM179.52,114.24c1.59.3,4.98.15,6.11-.5,1.63-.94,1.24-4.78,1.24-4.78l1.81-.09c2.48,2.76,10.15,2.52,13.69-.33,3.43-2.76,4.47-10.11,3.7-17.38-.19-1.79-1.82-2.82-2.01-1.6-.79,5.13-6.75,7.62-9.26,10.08-1.9,1.86-2.46,2.96-3.92,5.37-.59.97-3.82.94-3.82.94,0,0-.39-2.26.95-3.11,5.61-3.53,7.45-5.37,10.13-10.74,1.68-3.37,3.36-7.53,1.1-11.01-.19-2.01-.66-2.6-1.29-4.26-1.97.17-2.97,2.01-2.97,2.01,0,0-.96-3.97-2.42-5.75-2.31.85-3.79,3.27-3.79,3.27,0,0-.97-3.06-2.86-5-2.39.84-4.01,3.01-4.01,3.01,0,0-1.44-1.78-3.44-3.11-2.48,1.7-3.63,3.96-3.63,3.96,0,0-1.23-1.51-3.54-2.36-1.46,1.77-2.1,4.52-2.1,4.52,0,0-1.24-1.51-2.49-2.07-1.43.84-.72,4-1.33,3.95-6.59,8.67,6.02,20.45,10.89,23.65,1.48.97,1.15,3.29,1.15,3.29h-1.63c-2.39-6.78-8.89-6.87-10.89-8.85-1.75-1.73-3.98-4.43-5.64-6.69-.64-.87-1.56-.04-1.65,1.02-.57,7.03-1.79,13.26.23,15.78,7.3,9.15,13.34.74,20.05,2.8,0,0-.38,3.58,1.63,3.96ZM175.6,97.38s-.38-.98-1.44-2.17c-.48.51-1.34,1.69-1.34,1.69,0,0,.72,1.08,1.75,1.93,0,0,.45-.98,1.03-1.45ZM179.81,95.3c-1.01.4-1.83,2.08-1.83,2.08,0,0,1.37,1.24,1.95,2.43.67-1.21,1.59-1.87,1.59-1.87,0,0-.73-1.96-1.71-2.65ZM175.68,89.99c-1,.93-1.58,2.52-1.58,2.52,0,0,1.2,1.22,1.86,2.37.58-1.26,1.85-2.18,1.85-2.18,0,0-.78-1.83-2.14-2.71ZM171.68,92.17s-.58-1.61-1.72-2.51c-.74.51-1.41,1.99-1.41,1.99,0,0,.41,1.11,1.45,2.51.99-1.36,1.68-1.99,1.68-1.99ZM168.43,86.58c-.34-.67-1.09-1.89-1.77-2.47-.45.32-.75,1.82-.75,1.82.19,1.07.95,2.61.95,2.61,0,0,.61-1.21,1.57-1.96ZM160.03,98.88c0,3.48-.86,6.79,4.87,8.58-2.01-.94-4.4-3.49-4.87-8.58ZM161.84,96.62c1.18,2,3.99,2.91,6.74,4.06,1.94.82,5.3,3.7,4.64,5.55-.9,2.49-11.94,1.13-11.37-9.61ZM178.47,74.18c-1.47,1.45-1.72,3.14-1.72,3.14,1.47,0,2.49-.68,3.53-1.28,0,0-.66-1.23-1.81-1.87ZM167.51,78.31c-.37,1.24-.18,2.05-.02,3.2.69-.89,1.06-1.35,1.81-1.85,0,0-.61-.7-1.79-1.35ZM172.19,75.35c1.53,1.06,2.74,2.17,2.74,2.17-1.84.28-3.05.66-3.53,1.01,0,0-.19-1.5.79-3.19ZM178.26,85.2c-.95.75-1.78,2.74-1.78,2.74,0,0,1.23.88,1.8,2.07.67-1.21,1.64-1.79,1.64-1.79,0,0-.69-2.19-1.66-3.02ZM173.74,87.93s-.46-2.33-1.29-2.82c-1.08.92-2.04,2.66-2.04,2.66,0,0,1.01.75,1.66,2.01.99-1.36,1.67-1.86,1.67-1.86ZM189.16,97.38s.38-.98,1.44-2.17c.48.51,1.34,1.69,1.34,1.69,0,0-.72,1.08-1.75,1.93,0,0-.44-.98-1.03-1.45ZM184.89,95.3c1.01.4,1.83,2.08,1.83,2.08,0,0-1.37,1.24-1.95,2.43-.67-1.21-1.59-1.87-1.59-1.87,0,0,.73-1.96,1.71-2.65ZM188.05,90.26c1.07.86,1.75,2.4,1.75,2.4,0,0-1.11,1.3-1.69,2.49-.66-1.21-2-2.05-2-2.05,0,0,.65-1.88,1.94-2.85ZM192.52,92.54s.58-1.61,1.72-2.51c.74.51,1.41,1.99,1.41,1.99,0,0-.41,1.11-1.45,2.51-.99-1.36-1.69-1.99-1.69-1.99ZM195.01,86.97c.34-.67,1.09-1.89,1.77-2.47.45.32.75,1.82.75,1.82-.19,1.07-.95,2.6-.95,2.6,0,0-.61-1.21-1.57-1.95ZM202.81,100.69c.68,4.22-5.62,10.61-10.4,6.76,3.99.04,8.8-2.8,10.4-6.76ZM203.87,93.7c-.98,1.66-4.58,5.54-6.87,6.5-1.62.68-4.51,4.24-3.16,5.18,1.63,1.13,9.27-2.73,10.03-11.68ZM185.01,85.68c.95.75,1.78,2.74,1.78,2.74,0,0-1.23.88-1.8,2.07-.66-1.21-1.64-1.79-1.64-1.79,0,0,.69-2.19,1.66-3.02ZM181.48,86.26s-1.38-2.23-3.39-3.17c-2.17.99-3.06,2.7-3.06,2.7,0,0-.91-1.68-1.9-2.82-.95.21-3.35,1.7-3.35,1.7l-1.05-1.7c1.84-2.45,7.5-3.09,8.51-3.58-.04,1.09-1.32,1.94-.94,3.46.76-1.69,3.48-3.8,4.06-4.26,1.21,1.02.43,3.04,1.33,5.11,1.11-.42.25-4.77,1.49-4.98.47,1.73,2.84,2.73,3.39,4.07.47-1.81-2.07-3.03-1.25-3.65,2.97,1.48,7.28.92,9.04,4.42l-1.55,1.67s-.95-1.58-2.78-2.43c-1.28,1.36-1.83,3.74-1.83,3.74,0,0-1.01-2.41-3.18-3.4-2.01.94-3.55,3.13-3.55,3.13ZM185.35,74.18c1.47,1.44,1.79,3.23,1.79,3.23-1.55-.26-2.56-.77-3.6-1.36,0,0,.66-1.23,1.81-1.87ZM197.38,79.06c.36,1.24.18,2.05.02,3.2-.69-.89-1.05-1.35-1.81-1.86,0,0,.61-.7,1.79-1.35ZM192.11,75.82c-1.53,1.06-2.74,2.17-2.74,2.17,1.84.28,3.05.66,3.53,1.01,0,0,.19-1.5-.79-3.19ZM185.15,103.87c-.76-.19-1.72-.28-2.64.26,0,3.01-.89,4.81,0,7.68.25.83,2.83.42,2.83-.87,0-2.47-.02-4.6-.19-7.07Z"/>
  <path class="st2" d="M238.09,88.94s.42-1.96,1.06-2.43c.88.62,1.64,2.02,1.64,2.02,0,0-.76.69-1.18,1.78-.93-1.02-1.52-1.37-1.52-1.37M232.05,90.27c1.02.65,1.54,2.15,1.54,2.15,0,0-.87.89-1.54,2.08-.67-1.19-1.54-2.08-1.54-2.08,0,0,.52-1.5,1.54-2.15ZM229.92,110.35c1.3.25,4.08.13,5-.41,1.33-.77,1.02-3.91,1.02-3.91l1.48-.08c2.03,2.25,8.3,2.06,11.2-.27,2.81-2.26,3.66-8.27,3.02-14.22-.15-1.47-1.48-2.31-1.64-1.31-.65,4.2-5.52,6.24-7.58,8.25-1.56,1.52-2.01,2.42-3.21,4.39-.48.8-3.12.77-3.12.77,0,0-.32-1.85.78-2.54,4.59-2.89,6.1-4.39,8.29-8.79,1.37-2.75,2.75-6.16.9-9.01-.16-1.65-.54-2.12-1.05-3.49-1.61.14-2.43,1.65-2.43,1.65,0,0-.79-3.25-1.98-4.7-1.89.69-3.1,2.68-3.1,2.68,0,0-.8-2.51-2.34-4.09-1.95.69-3.28,2.47-3.28,2.47,0,0-1.17-1.46-2.82-2.54-2.03,1.39-2.97,3.24-2.97,3.24,0,0-1-1.24-2.9-1.93-1.19,1.45-1.72,3.7-1.72,3.7,0,0-1.01-1.24-2.03-1.69-1.17.69-.58,3.28-1.09,3.23-5.4,7.1,4.92,16.73,8.91,19.35,1.21.8.94,2.7.94,2.7h-1.33c-1.95-5.55-7.27-5.62-8.91-7.24-1.43-1.41-3.26-3.62-4.62-5.48-.52-.71-1.28-.03-1.35.83-.47,5.75-1.46,10.84.19,12.91,5.97,7.48,10.91.61,16.4,2.29,0,0-.31,2.92,1.33,3.24ZM226.71,96.55s-.31-.8-1.18-1.77c-.39.41-1.09,1.38-1.09,1.38,0,0,.59.88,1.43,1.58,0,0,.37-.8.84-1.19ZM230.16,94.85c-.83.33-1.5,1.71-1.5,1.71,0,0,1.12,1.01,1.6,1.99.54-.99,1.3-1.53,1.3-1.53,0,0-.6-1.6-1.4-2.17ZM226.78,90.5c-.82.76-1.29,2.06-1.29,2.06,0,0,.99,1,1.53,1.94.47-1.02,1.51-1.78,1.51-1.78,0,0-.64-1.49-1.75-2.22ZM223.51,92.29s-.47-1.32-1.41-2.05c-.61.41-1.15,1.63-1.15,1.63,0,0,.33.91,1.18,2.06.81-1.11,1.38-1.63,1.38-1.63ZM220.85,87.72c-.28-.54-.89-1.55-1.45-2.02-.36.26-.61,1.49-.61,1.49.15.87.78,2.13.78,2.13,0,0,.5-.99,1.29-1.6ZM213.97,97.78c0,2.85-.71,5.55,3.99,7.02-1.64-.77-3.6-2.85-3.99-7.02ZM215.45,95.93c.97,1.64,3.27,2.38,5.51,3.32,1.59.67,4.34,3.03,3.79,4.54-.74,2.04-9.77.93-9.3-7.86ZM229.06,77.57c-1.2,1.18-1.41,2.57-1.41,2.57,1.2,0,2.04-.56,2.89-1.05,0,0-.54-1.01-1.48-1.52ZM220.09,80.95c-.3,1.01-.15,1.68-.01,2.62.57-.73.86-1.11,1.48-1.52,0,0-.5-.57-1.47-1.1ZM223.92,78.53c1.25.87,2.24,1.78,2.24,1.78-1.5.23-2.49.54-2.89.83,0,0-.15-1.23.65-2.61ZM228.89,86.59c-.78.61-1.46,2.24-1.46,2.24,0,0,1,.72,1.48,1.69.54-.99,1.34-1.47,1.34-1.47,0,0-.57-1.79-1.36-2.47ZM225.19,88.82s-.37-1.91-1.06-2.31c-.88.75-1.67,2.18-1.67,2.18,0,0,.83.61,1.36,1.65.81-1.11,1.37-1.52,1.37-1.52ZM237.81,96.55s.31-.8,1.18-1.77c.39.41,1.09,1.38,1.09,1.38,0,0-.59.88-1.43,1.58,0,0-.36-.8-.84-1.19ZM234.31,94.85c.83.33,1.5,1.71,1.5,1.71,0,0-1.12,1.01-1.6,1.99-.54-.99-1.3-1.53-1.3-1.53,0,0,.6-1.6,1.4-2.17ZM236.91,90.72c.87.71,1.43,1.96,1.43,1.96,0,0-.91,1.07-1.38,2.04-.55-.99-1.64-1.67-1.64-1.67,0,0,.53-1.54,1.59-2.33ZM240.56,92.59s.47-1.32,1.41-2.05c.61.41,1.15,1.63,1.15,1.63,0,0-.33.91-1.18,2.06-.81-1.11-1.38-1.63-1.38-1.63ZM242.59,88.03c.28-.55.89-1.55,1.45-2.02.36.26.61,1.49.61,1.49-.15.87-.78,2.13-.78,2.13,0,0-.5-.99-1.29-1.6ZM248.98,99.26c.55,3.45-4.6,8.68-8.51,5.53,3.27.04,7.2-2.29,8.51-5.53ZM249.85,93.54c-.8,1.36-3.75,4.53-5.62,5.32-1.32.56-3.69,3.47-2.58,4.24,1.33.92,7.58-2.24,8.21-9.56ZM234.42,86.98c.78.61,1.46,2.24,1.46,2.24,0,0-1,.72-1.48,1.7-.54-.99-1.34-1.47-1.34-1.47,0,0,.57-1.79,1.36-2.47ZM231.52,87.45s-1.13-1.83-2.77-2.6c-1.77.81-2.51,2.2-2.51,2.2,0,0-.75-1.37-1.56-2.31-.77.17-2.74,1.39-2.74,1.39l-.86-1.39c1.5-2,6.13-2.53,6.96-2.93-.04.9-1.08,1.59-.76,2.83.62-1.38,2.85-3.11,3.32-3.49.99.83.35,2.49,1.09,4.18.91-.35.2-3.9,1.22-4.08.39,1.41,2.32,2.23,2.78,3.33.39-1.48-1.7-2.47-1.03-2.98,2.43,1.21,5.95.75,7.4,3.62l-1.26,1.37s-.77-1.29-2.28-1.99c-1.05,1.11-1.5,3.06-1.5,3.06,0,0-.83-1.98-2.6-2.79-1.64.77-2.91,2.56-2.91,2.56ZM234.7,77.57c1.2,1.18,1.47,2.64,1.47,2.64-1.27-.21-2.1-.63-2.95-1.11,0,0,.54-1.01,1.48-1.53ZM244.54,81.56c.3,1.01.15,1.68.01,2.62-.57-.73-.87-1.1-1.48-1.52,0,0,.5-.57,1.47-1.1ZM240.23,78.91c-1.25.87-2.24,1.78-2.24,1.78,1.5.23,2.49.54,2.89.83,0,0,.15-1.23-.65-2.61ZM234.53,101.86c-.62-.15-1.41-.23-2.16.21,0,2.46-.73,3.93,0,6.28.21.68,2.32.34,2.32-.71,0-2.02-.02-3.76-.15-5.78Z"/>
  <path class="st2" d="M138.05,88.94s.42-1.96,1.06-2.43c.88.62,1.64,2.02,1.64,2.02,0,0-.76.69-1.18,1.78-.93-1.02-1.52-1.37-1.52-1.37M132.02,90.27c1.02.65,1.54,2.15,1.54,2.15,0,0-.87.89-1.54,2.08-.67-1.19-1.54-2.08-1.54-2.08,0,0,.52-1.5,1.54-2.15ZM129.89,110.35c1.3.25,4.08.13,5-.41,1.33-.77,1.02-3.91,1.02-3.91l1.48-.08c2.03,2.25,8.3,2.06,11.2-.27,2.81-2.26,3.66-8.27,3.02-14.22-.16-1.47-1.48-2.31-1.64-1.31-.65,4.2-5.52,6.24-7.58,8.25-1.56,1.52-2.01,2.42-3.21,4.39-.48.8-3.12.77-3.12.77,0,0-.32-1.85.78-2.54,4.59-2.89,6.1-4.39,8.29-8.79,1.37-2.75,2.75-6.16.9-9.01-.15-1.65-.54-2.12-1.05-3.49-1.61.14-2.43,1.65-2.43,1.65,0,0-.79-3.25-1.98-4.7-1.89.69-3.1,2.68-3.1,2.68,0,0-.8-2.51-2.34-4.09-1.96.69-3.28,2.47-3.28,2.47,0,0-1.17-1.46-2.82-2.54-2.03,1.39-2.97,3.24-2.97,3.24,0,0-1-1.24-2.9-1.93-1.19,1.45-1.72,3.7-1.72,3.7,0,0-1.01-1.24-2.03-1.69-1.17.69-.59,3.28-1.09,3.23-5.4,7.1,4.92,16.73,8.91,19.35,1.21.8.94,2.7.94,2.7h-1.33c-1.95-5.55-7.27-5.62-8.91-7.24-1.43-1.41-3.26-3.62-4.62-5.48-.52-.71-1.28-.03-1.35.83-.47,5.75-1.46,10.84.19,12.91,5.97,7.48,10.91.61,16.4,2.29,0,0-.31,2.92,1.33,3.24ZM126.68,96.55s-.31-.8-1.18-1.77c-.39.41-1.09,1.38-1.09,1.38,0,0,.59.88,1.43,1.58,0,0,.37-.8.84-1.19ZM130.13,94.85c-.83.33-1.5,1.71-1.5,1.71,0,0,1.12,1.01,1.6,1.99.54-.99,1.3-1.53,1.3-1.53,0,0-.6-1.6-1.4-2.17ZM126.75,90.5c-.82.76-1.29,2.06-1.29,2.06,0,0,.99,1,1.52,1.94.47-1.02,1.51-1.78,1.51-1.78,0,0-.63-1.49-1.75-2.22ZM123.47,92.29s-.47-1.32-1.41-2.05c-.61.41-1.15,1.63-1.15,1.63,0,0,.33.91,1.18,2.06.81-1.11,1.38-1.63,1.38-1.63ZM120.81,87.72c-.28-.54-.89-1.55-1.45-2.02-.37.26-.61,1.49-.61,1.49.15.87.78,2.13.78,2.13,0,0,.5-.99,1.29-1.6ZM113.94,97.78c0,2.85-.71,5.55,3.99,7.02-1.64-.77-3.6-2.85-3.99-7.02ZM115.42,95.93c.97,1.64,3.27,2.38,5.51,3.32,1.59.67,4.34,3.03,3.79,4.54-.74,2.04-9.77.93-9.3-7.86ZM129.03,77.57c-1.2,1.18-1.41,2.57-1.41,2.57,1.2,0,2.04-.56,2.89-1.05,0,0-.54-1.01-1.48-1.52ZM120.06,80.95c-.3,1.01-.15,1.68-.01,2.62.57-.73.86-1.11,1.48-1.52,0,0-.5-.57-1.47-1.1ZM123.89,78.53c1.25.87,2.24,1.78,2.24,1.78-1.5.23-2.49.54-2.89.83,0,0-.15-1.23.65-2.61ZM128.85,86.59c-.78.61-1.46,2.24-1.46,2.24,0,0,1,.72,1.48,1.69.54-.99,1.34-1.47,1.34-1.47,0,0-.57-1.79-1.36-2.47ZM125.16,88.82s-.37-1.91-1.06-2.31c-.88.75-1.67,2.18-1.67,2.18,0,0,.83.61,1.36,1.65.81-1.11,1.37-1.52,1.37-1.52ZM137.77,96.55s.31-.8,1.17-1.77c.39.41,1.09,1.38,1.09,1.38,0,0-.59.88-1.43,1.58,0,0-.36-.8-.84-1.19ZM134.28,94.85c.83.33,1.5,1.71,1.5,1.71,0,0-1.12,1.01-1.6,1.99-.54-.99-1.3-1.53-1.3-1.53,0,0,.6-1.6,1.4-2.17ZM136.87,90.72c.87.71,1.43,1.96,1.43,1.96,0,0-.91,1.07-1.39,2.04-.54-.99-1.64-1.67-1.64-1.67,0,0,.53-1.54,1.59-2.33ZM140.53,92.59s.47-1.32,1.41-2.05c.61.41,1.15,1.63,1.15,1.63,0,0-.33.91-1.18,2.06-.81-1.11-1.38-1.63-1.38-1.63ZM142.56,88.03c.28-.55.89-1.55,1.45-2.02.37.26.61,1.49.61,1.49-.15.87-.78,2.13-.78,2.13,0,0-.5-.99-1.29-1.6ZM148.95,99.26c.55,3.45-4.6,8.68-8.51,5.53,3.27.04,7.2-2.29,8.51-5.53ZM149.81,93.54c-.8,1.36-3.75,4.53-5.62,5.32-1.32.56-3.69,3.47-2.58,4.24,1.33.92,7.58-2.24,8.21-9.56ZM134.38,86.98c.78.61,1.46,2.24,1.46,2.24,0,0-1,.72-1.48,1.7-.54-.99-1.34-1.47-1.34-1.47,0,0,.57-1.79,1.36-2.47ZM131.49,87.45s-1.13-1.83-2.77-2.6c-1.77.81-2.51,2.2-2.51,2.2,0,0-.75-1.37-1.56-2.31-.78.17-2.74,1.39-2.74,1.39l-.86-1.39c1.5-2,6.13-2.53,6.97-2.93-.04.9-1.08,1.59-.76,2.83.62-1.38,2.85-3.11,3.33-3.49.99.83.35,2.49,1.09,4.18.9-.35.2-3.9,1.22-4.08.39,1.41,2.32,2.23,2.78,3.33.39-1.48-1.69-2.47-1.03-2.98,2.43,1.21,5.95.75,7.4,3.62l-1.27,1.37s-.77-1.29-2.28-1.99c-1.05,1.11-1.5,3.06-1.5,3.06,0,0-.83-1.98-2.6-2.79-1.64.77-2.9,2.56-2.9,2.56ZM134.66,77.57c1.2,1.18,1.47,2.64,1.47,2.64-1.27-.21-2.1-.63-2.95-1.11,0,0,.54-1.01,1.48-1.53ZM144.5,81.56c.3,1.01.15,1.68.01,2.62-.57-.73-.86-1.1-1.48-1.52,0,0,.5-.57,1.47-1.1ZM140.19,78.91c-1.25.87-2.24,1.78-2.24,1.78,1.5.23,2.49.54,2.89.83,0,0,.15-1.23-.65-2.61ZM134.5,101.86c-.62-.15-1.41-.23-2.16.21,0,2.46-.73,3.93,0,6.28.21.68,2.32.34,2.32-.71,0-2.02-.02-3.76-.15-5.78Z"/>
  <path class="st4" d="M181.52,272.84c-34.23,0-61.23-9.18-80.35-18.55l.06-9.39c0-3.51,0-5.66-3.18-7.7-6.89-4.41-11.77-3.63-16.37-5.89-3.09-1.52-3.97-2.55-5.38-6.96-3.05,2.76-4.38,4.98-4.6,8.85-.19,3.46.57,5.77,2.8,8.44-2.62,1.97-3.68,4.44-3.3,7.67.42,3.58,2.95,5.12,6.01,7.08,1.54.99,3.59,1.77,6.43,1.89v6.56c0,4.43,0,6.77,3.01,8.33,29.12,15.09,54.49,23.32,94.86,23.32s65.74-8.23,94.86-23.32c3.01-1.56,3.01-3.9,3.01-8.33v-6.56c2.84-.13,4.89-.9,6.43-1.89,3.06-1.96,5.59-3.5,6.01-7.08.38-3.23-.68-5.7-3.3-7.67,2.23-2.68,2.99-4.98,2.8-8.44-.22-3.87-1.54-6.09-4.59-8.85-1.42,4.41-2.3,5.43-5.38,6.96-4.6,2.27-9.48,1.49-16.37,5.89-3.19,2.04-3.18,4.19-3.18,7.7l.06,9.39c-19.11,9.37-46.11,18.55-80.35,18.55"/>
  <path class="st2" d="M114.71,276.71c.02.95.01,1.88-.04,2.83,1.02.69,2.17.97,3.31,1.03,3.43.18,5.07-1.45,5.18-3.47.13-2.42-1.6-2.97-3.88-3.54-2.25-.57-2.95-.81-2.88-2.12.06-1.15,1.12-2.02,3.12-1.92,1.29.07,2.78.67,2.95,2.27l.37.02c-.01-.84,0-1.7.06-2.53-.64-.44-2.25-.72-3.03-.76-2.97-.15-4.97,1.31-5.07,3.11-.12,2.22,1.57,2.87,4.71,3.66,1.26.32,2.13.66,2.05,2.11-.09,1.62-1.66,2.25-3,2.18-1.81-.09-3.13-1.08-3.47-2.84l-.37-.02M90.36,268.46c0,.51-.22.66-.94.77v.25c.39,0,1.15-.11,1.85-.11s1.46.11,1.85.11v-.25c-.72-.11-.94-.26-.94-.77v-9.62h1c1.55,0,3.12.25,3.12,1.99,0,1.6-1.35,2.39-3.27,2.39-.15,0-.35.07-.35.18,0,.07.15.24.37.53l2.38,3.15c1.5,2.06,1.68,2.35,1.89,2.41.46,0,.94-.11,1.42-.11.32,0,.63.11.96.11v-.25c-.54-.06-1-.51-1.55-1.2l-3.4-4.34c1.77-.15,3.36-1.24,3.36-3.1,0-1.51-.87-2.77-3.33-2.77h-5.36v.25c.72.11.94.26.94.77v9.62ZM265,269.16c0,.51-.21.66-.93.78v.25s9.39-.16,9.39-.16c0-1,.06-1.99.13-2.99h-.35c-.3,1.67-.96,1.99-2.51,2.02l-3.92.07-.08-4.59,2.62-.05c.66-.01,1.03.04,1.18,1.04h.37c-.07-.53-.13-1.02-.14-1.59,0-.53.04-1.02.09-1.55h-.37c-.11,1.01-.48,1.07-1.14,1.08l-2.62.04-.07-3.9,4.23-.07c.81-.01,1.44.19,1.69,1.65h.37c-.09-.9-.14-1.81-.16-2.7l-8.9.15v.26c.73.1.95.24.96.75l.17,9.51ZM261.15,273.36c-1.05.65-2.3,1.13-3.57,1.11-2.61-.06-4.56-2.67-4.5-5.47.06-2.66,1.94-4.35,4.4-4.29,1.29.03,2.85.57,3.18,2.24h.26c-.07-.91-.13-1.82-.13-2.73-.84-.42-1.85-.61-2.79-.63-2.59-.06-6.54,1.55-6.63,5.98-.09,4.26,3.17,6.08,5.57,6.13,1.57.03,3.11-.39,4.11-1.31l.09-1.02ZM244.75,280.11c.39,0,1.14-.11,1.85-.11s1.46.11,1.85.11v-.26c-.72-.11-.94-.25-.94-.76v-9.73c0-.51.22-.66.94-.77v-.25c-.39,0-1.14.11-1.85.11s-1.46-.11-1.85-.11v.25c.72.11.94.26.94.77v9.73c0,.51-.22.66-.94.76v.26ZM233.52,282.8c0,.51-.22.66-.94.76v.25c.39,0,1.14-.11,1.85-.11s1.46.11,1.85.11v-.25c-.72-.11-.94-.26-.94-.76v-9.73h.48c2.49,0,4.14.35,4.14,2.68,0,1.71-1.33,2.66-3.07,2.66h-1.11c-.17,0-.26.06-.26.15s.06.13.11.18c.33.31,1.33.47,1.77.47,2.49,0,4.25-1.42,4.25-3.64,0-2.02-1.2-3.41-3.64-3.41h-5.43v.25c.72.11.94.25.94.76v9.62ZM220.37,282.57c.07.95.11,1.88.11,2.82,1.05.64,2.22.86,3.36.86,3.44,0,4.99-1.71,4.99-3.74,0-2.42-1.76-2.88-4.07-3.33-2.27-.45-2.99-.66-2.99-1.97,0-1.15,1.02-2.08,3.01-2.08,1.29,0,2.81.53,3.07,2.11h.37c-.06-.84-.09-1.69-.07-2.53-.66-.4-2.29-.6-3.07-.6-2.98,0-4.9,1.57-4.9,3.37,0,2.22,1.72,2.79,4.9,3.41,1.27.25,2.16.55,2.16,2,0,1.62-1.53,2.33-2.88,2.33-1.81,0-3.18-.91-3.62-2.66h-.37ZM205.09,283.51c.41,3.27,2.8,5.74,6.49,5.29,3.63-.44,5.58-3.78,5.19-6.89-.33-2.64-2.35-5.68-6.42-5.19-2.84.34-5.7,3.24-5.26,6.79ZM206.72,282.85c-.41-3.33,1.91-4.67,3.25-4.83,2.33-.28,4.8,1.59,5.19,4.75.36,2.88-1.36,4.52-3.3,4.75-2.82.34-4.82-2.12-5.14-4.67ZM192.74,289.55c0,.51-.22.66-.94.77v.25c.39,0,1.14-.11,1.85-.11s1.46.11,1.85.11v-.25c-.72-.11-.94-.26-.94-.77v-9.62h1c1.55,0,3.12.26,3.12,1.99,0,1.6-1.35,2.39-3.27,2.39-.15,0-.35.07-.35.18,0,.07.15.24.37.53l2.38,3.15c1.5,2.06,1.68,2.35,1.88,2.41.46,0,.94-.11,1.42-.11.31,0,.63.11.96.11v-.25c-.54-.05-1-.51-1.55-1.2l-3.4-4.34c1.77-.15,3.36-1.24,3.36-3.1,0-1.51-.87-2.77-3.32-2.77h-5.36v.26c.72.11.94.25.94.76v9.62ZM179.94,289.68c0,.51-.22.66-.94.76v.26c.39,0,1.14-.11,1.85-.11s1.46.11,1.85.11v-.26c-.72-.11-.94-.26-.94-.76v-9.73h.48c2.49,0,4.14.35,4.14,2.68,0,1.71-1.33,2.66-3.07,2.66h-1.11c-.17,0-.26.06-.26.15s.06.13.11.18c.33.31,1.33.47,1.77.47,2.49,0,4.25-1.42,4.25-3.64,0-2.02-1.2-3.41-3.64-3.41h-5.43v.26c.72.11.94.25.94.76v9.62ZM161,289.01c0,.51-.22.66-.94.76v.26h9.38c.02-1,.09-1.99.18-2.99h-.35c-.33,1.66-1,1.97-2.55,1.97h-3.92v-4.59h2.62c.66,0,1.03.05,1.16,1.06h.37c-.06-.53-.11-1.02-.11-1.59,0-.53.05-1.02.11-1.55h-.37c-.13,1-.5,1.05-1.16,1.05h-2.62v-3.9h4.23c.81,0,1.44.22,1.66,1.68h.37c-.08-.89-.11-1.8-.11-2.7h-8.9v.25c.72.11.94.26.94.77v9.51ZM156.2,286.68c-1.04.67-2.28,1.17-3.56,1.15-2.6-.02-4.6-2.61-4.57-5.41.02-2.66,1.89-4.37,4.34-4.35,1.29.01,2.86.53,3.21,2.2h.26c-.09-.91-.15-1.82-.16-2.73-.85-.41-1.86-.58-2.8-.59-2.59-.02-6.52,1.64-6.56,6.07-.04,4.26,3.25,6.04,5.65,6.06,1.57.01,3.11-.43,4.1-1.37l.08-1.02ZM138.95,286.9c.39,0,1.15-.11,1.85-.11s1.46.11,1.85.11v-.26c-.72-.11-.94-.25-.94-.77v-9.73c0-.51.22-.66.94-.76v-.26c-.39,0-1.15.11-1.85.11s-1.46-.11-1.85-.11v.26c.72.11.94.26.94.76v9.73c0,.51-.22.66-.94.77v.26ZM127.72,282.67c0,.51-.22.66-.94.76v.26c.39,0,1.14-.11,1.85-.11s1.46.11,1.85.11v-.26c-.72-.11-.94-.25-.94-.76v-9.73h.48c2.49,0,4.14.35,4.14,2.68,0,1.71-1.33,2.66-3.07,2.66h-1.11c-.17,0-.26.06-.26.15s.05.13.11.18c.33.31,1.33.47,1.77.47,2.49,0,4.25-1.42,4.25-3.64,0-2.02-1.2-3.41-3.64-3.41h-5.43v.25c.72.11.94.26.94.76v9.62ZM103.09,274.64c0,.51-.22.66-.94.77v.25s9.39-.04,9.39-.04c.01-1,.08-1.99.17-2.99h-.35c-.33,1.66-.99,1.97-2.54,1.98l-3.91.02-.02-4.59h2.62c.66-.01,1.03.04,1.17,1.04h.37c-.06-.53-.11-1.02-.12-1.59,0-.53.05-1.02.1-1.55h-.37c-.12,1-.5,1.06-1.16,1.06h-2.62s-.02-3.89-.02-3.89l4.23-.02c.81,0,1.44.21,1.67,1.67h.37c-.08-.89-.12-1.8-.12-2.7l-8.9.04v.26c.72.11.94.25.95.76l.04,9.51Z"/>
  <path class="st2" d="M181.52,271.21h-7.69l-4.68-.26c-11.08-.75-22.29-2.58-33.22-5.38-11.14-2.85-22.19-6.99-33.27-12.39v-11.3c0-.16-.21-1.22-.37-1.79-.12-.42-.4-1.13-.64-1.59-1.2-2.25-5.13-4.24-7.99-5.38-3.12-1.23-6.28-1.63-9.43-2.6-1.78-.54-4.92-2-5.67-4.36-.48-1.53-1.04-3.1-1.64-4.64-.54.51-1.02,1.07-1.57,1.5-3.72,3-4.94,6.55-5.14,9.66-.06.94-.06,1.36-.06,1.52,0,2.18.84,5.03,2.38,7.08-1.26.61-2.82,4.13-2.82,5.31v2.61c0,.16.15.51.17.69.46,4.37,7.01,8.77,12.23,9.47.06.04.11.1.11.1v8.41c0,1.64.89,4.79,2.71,5.82,9.16,5.21,18.86,9.37,28.17,12.85,2.29.85,4.65,1.7,6.93,2.43,13.6,4.32,27.47,7.03,41.07,8.16l9.5.51,10.97.24,10.97-.24,9.5-.51c13.59-1.13,27.46-3.85,41.07-8.16,2.29-.73,4.64-1.58,6.93-2.43,9.31-3.47,19-7.63,28.17-12.85,1.82-1.03,2.71-4.18,2.71-5.82v-8.41s.05-.05.11-.1c5.22-.7,11.77-5.09,12.23-9.47.02-.18.17-.53.17-.69v-2.61c0-1.18-1.57-4.7-2.82-5.31,1.53-2.05,2.38-4.9,2.38-7.08,0-.16,0-.58-.07-1.52-.21-3.12-1.42-6.67-5.14-9.66-.55-.44-1.02-.99-1.57-1.5-.6,1.54-1.16,3.11-1.64,4.64-.76,2.36-3.89,3.81-5.67,4.36-3.15.97-6.31,1.36-9.43,2.6-2.86,1.13-6.78,3.13-7.99,5.38-.24.46-.52,1.17-.64,1.59-.16.57-.37,1.63-.37,1.79v11.3c-11.08,5.4-22.13,9.53-33.27,12.39-10.93,2.8-22.14,4.63-33.22,5.38l-4.68.26h-7.7M86.35,244.89h.54c.71-.01,5.41,1.33,5.85,1.42,1.02.23,2.12.4,3.14.59l1.51.06c.74,0,1.75-.16,2.36-.25v5.11c-4.39-1.97-9.03-4.53-13.39-6.94ZM287.36,226.66c-.44,1.51-1.39,3.16-3.22,4.47-2.54,1.82-5.34,2.46-8.01,3.07-1.8.42-3.84.82-5.72,1.58-2.35.97-5.84,2.53-6.73,4.5-.21.47-.41,1.51-.41,1.66v1.85c.32.1,1.9.33,2.4.33,3.88,0,7.47-2.09,10.78-2.09.16,0,.84.02,1.21.08.33.06.66.19.95.31.44.19,1.9,1.16,1.9,1.6,0,.16.32.48.33.64v11.85h.4c.9,0,3.99-1.61,4.13-1.69,3.99-2.33,5.08-3.96,5.08-6.94,0-4.52-3.85-5.56-3.85-6.2,0-.51,3.4-3.41,3.4-7.53,0-2.39-.51-5.09-2.67-7.5ZM276.68,244.89h-.54c-.71-.01-5.41,1.33-5.85,1.42-1.02.23-2.12.4-3.14.59l-1.5.06c-.74,0-1.75-.16-2.36-.25v5.11c4.39-1.97,9.03-4.53,13.39-6.94ZM181.52,295.06h-3.27l-8.6-.26-8.34-.51c-13.09-1.19-26.15-3.48-39.25-7.66-3.44-1.09-6.93-2.39-10.39-3.72-5.43-2.09-10.98-4.48-16.29-7.06-2.25-1.09-4.4-2.49-6.74-3.38-1.59-.59-3.77-2.61-3.47-4.09.05-.25-.04-.52-.08-.77v-20.15c13.9,7.65,28.01,14.15,41.89,18.42,7.44,2.29,14.96,4.13,22.26,5.39,6.63,1.15,13.07,2.1,19.7,2.52,3.78.24,1.28.25,12.57.37,11.29-.12,8.79-.13,12.58-.37,6.62-.42,13.08-1.37,19.7-2.52,7.31-1.26,14.82-3.11,22.27-5.39,13.88-4.26,27.99-10.76,41.89-18.42v20.15c-.04.25-.13.52-.08.77.3,1.49-1.88,3.5-3.47,4.09-2.34.88-4.49,2.29-6.74,3.38-5.31,2.58-10.86,4.97-16.29,7.06-3.46,1.33-6.95,2.63-10.39,3.72-13.1,4.18-26.17,6.46-39.25,7.66l-8.34.51-8.6.26h-3.27ZM75.68,226.66c.44,1.51,1.39,3.16,3.22,4.47,2.54,1.82,5.34,2.46,8.01,3.07,1.79.42,3.84.82,5.72,1.58,2.35.97,5.84,2.53,6.73,4.5.21.47.41,1.51.41,1.66v1.85c-.32.1-1.9.33-2.4.33-3.88,0-7.47-2.09-10.78-2.09-.16,0-.84.02-1.22.08-.33.06-.66.19-.95.31-.44.19-1.9,1.16-1.9,1.6,0,.16-.32.48-.33.64v11.85h-.4c-.9,0-3.99-1.61-4.13-1.69-3.99-2.33-5.08-3.96-5.08-6.94,0-4.52,3.85-5.56,3.85-6.2,0-.51-3.4-3.41-3.4-7.53,0-2.39.51-5.09,2.67-7.5Z"/>
</svg>